<?xml version="1.0" encoding="utf-8"?>
<!-- Generator: Adobe Illustrator 26.0.1, SVG Export Plug-In . SVG Version: 6.00 Build 0)  -->
<svg version="1.1" id="Layer_1" xmlns="http://www.w3.org/2000/svg" xmlns:xlink="http://www.w3.org/1999/xlink" x="0px" y="0px"
	 viewBox="0 0 278.2 308.3" style="enable-background:new 0 0 278.2 308.3;" xml:space="preserve">
<style type="text/css">
	.st0{display:none;fill:#606161;}
	.st1{fill-rule:evenodd;clip-rule:evenodd;}
	.st2{fill-rule:evenodd;clip-rule:evenodd;fill:#00AEEF;}
	.st3{fill-rule:evenodd;clip-rule:evenodd;fill:#00A651;}
	.st4{fill-rule:evenodd;clip-rule:evenodd;fill:#ED1C24;}
	.st5{fill-rule:evenodd;clip-rule:evenodd;fill:#F8ABAD;}
	.st6{fill-rule:evenodd;clip-rule:evenodd;fill:#FFF200;}
	.st7{fill:#FED208;stroke:#010101;stroke-width:3;stroke-miterlimit:10;}
	.st8{fill:#FED208;}
	.st9{fill:#010101;}
	.st10{fill:#F6891F;}
	.st11{fill:#58A1BE;}
	.st12{fill:none;}
	.st13{fill:#231F20;}
	.st14{fill:#C52727;}
	.st15{fill:#FCEE21;}
</style>
<rect x="-8.1" y="124.4" class="st0" width="185.5" height="188.2"/>
<g>
	<path class="st1" d="M58.7,134.1c0.1-4.1,5.4-25.6,9.5-35.2c4.1-9.6,11.3-29.5,32.8-51.2c21.4-21.7,47.5-36,78.3-43.3
		c30.8-7.3,50.2-3.2,50.2-3.2s0,0.5-0.8,10.6c8.5,0.6,13.5,1.3,13.5,1.3s0,0-2.4,10c11.7,3.4,17.7,5.9,17.7,5.9s-1.6,2.2-6.8,9.4
		c16.1,4.1,20.5,9,20.5,9s-3.5,1.5-12.7,4.9c17.4,7,19.7,10.5,19.7,10.5s-6.5,2.6-17.9,6.1c-1.1-1.3-22.8-12.6-46.9-12.3
		c-24.1,0.2-54.5,10.3-76.7,36.7c-22.2,26.5-21.7,59.4-21.7,59.4s1.1,2,1.2,8.2"/>
	<path class="st2" d="M272.7,61.8c0,0-15.1-9.9-38.4-14.1c-23.3-4.3-41.9-1-59.6,5.5s-35.6,19.4-47.9,34.5
		c-12.3,15.1-20.3,35.9-22.3,52.4c4.9,4.5,8.5,12,8.5,12s-0.7-15.7,6-33s14.6-31.1,36.7-47s52.7-21.3,77.2-15.5s28.1,10,28.1,10
		L272.7,61.8z"/>
	<path class="st3" d="M265.8,46.8c0,0-15.5-11-49.3-11.2c-33.9-0.2-56.4,10.9-76.1,24.3c-19.7,13.4-32.8,34.5-39.1,48.5
		C94.9,122.4,94,133,94,133s4.8,1.5,8.8,6c1.3-12.8,5.7-24,10.7-35.2c6.6-13.3,19-29,34.5-39.6c15.5-10.6,40.1-22.9,69.4-20.7
		c29.4,2.2,37.1,8,37.1,8C258.3,49.9,262,48.3,265.8,46.8z"/>
	<path class="st4" d="M253.3,30.8c0,0-3,3-4.6,6.7c-12.5-4.3-40.8-6.8-67.1-0.5c-25.6,6.5-41.7,19.4-50.9,27.1
		c-11.1,9.5-22.3,24.1-28.9,37.9c-6.6,13.8-9.5,30-9.5,30s-4.6-2.2-9.5-2.6C87,110,95.4,91,105.7,77.9s25.6-30,53.1-41.5
		C186.3,25,204,23.5,220.9,24.1C237.9,24.7,246.3,27,253.3,30.8z"/>
	<path class="st5" d="M226.1,10.9c0.2-2.6,0.4-5.2,0.7-7.9c0,0-23.9-3.4-53.2,4.7c-29.4,8-53,25.4-66.9,38.4
		c-13.9,13-24.2,30.1-28.3,37.1c-4,7-13.2,28.2-16.7,49.4c2.8-1.7,4.1-2.3,8.4-2.8c2.1-19.1,10.2-37.7,18.6-51
		c7.8-12.4,28.3-39.3,65.9-56C193.3,6,222,10.7,226.1,10.9z"/>
	<path class="st6" d="M81.4,129.1c0,0-5-0.8-9.3,0c1.7-8.8,5.5-25.1,16.4-44.2c11-19.1,30.3-39.5,51.8-52.3
		c21.4-12.8,45.4-20.1,71.3-20.1c18.1,0.4,28.3,1.7,28.3,1.7c-0.6,2.9-1.2,5.8-1.8,8.7c0,0-12.2-2.2-33.6-1s-42.9,9.1-63.1,20.9
		c-20.2,11.7-30.8,25.5-37.1,33.2C97.8,83.6,86.1,103.2,81.4,129.1z"/>
</g>
<path class="st7" d="M34.5,223.5c5.8,6.2,11-35.7,4.5-33.2c-6.4,2.5-15.6,4.9-19.2,4.2c-3.6-0.7-13.4,4.6-10,12.6
	C12.8,214.3,21,209,34.5,223.5z"/>
<g>
	<path class="st8" d="M131.9,206.8c0.5,41.2-23.9,61-53.4,61s-62.6-0.4-62.6-34.1c0-16.5,10.8-21.7,16.6-32.7
		c9.5-18-4.7-47.2,30.3-56.7C91.3,136.7,130.9,124.9,131.9,206.8z"/>
	<path class="st9" d="M78.5,269.3c-28.6,0-64.1,0-64.1-35.6c0-11.7,5.2-18,10.2-24.1c2.3-2.9,4.7-5.8,6.6-9.3
		c3-5.6,3.5-12.4,4.1-19.5c1.2-14.6,2.6-31.2,27.2-37.9l1.1-0.3c15.9-4.3,35.8-9.7,50.3,1.3c12.8,9.7,19.3,30.3,19.7,62.9l0,0
		c0.2,20-5.4,36.4-16.3,47.4C107.4,264.1,94,269.3,78.5,269.3z M92.4,140.4c-9.2,0-19,2.7-28.2,5.1l-1.1,0.3
		c-22.6,6.1-23.7,20.2-25,35.2c-0.6,7.2-1.2,14.5-4.4,20.7c-2,3.7-4.5,6.8-6.9,9.8c-4.9,6-9.5,11.6-9.5,22.2
		c0,32.6,32.5,32.6,61.1,32.6c14.7,0,27.4-4.9,36.5-14.2c10.3-10.4,15.6-26.1,15.4-45.3l0,0c-0.4-31.6-6.4-51.5-18.5-60.5
		C106.2,142,99.5,140.4,92.4,140.4z"/>
</g>
<g>
	<path class="st10" d="M112.3,257.6c-5.7,21.7-28,42.3-53.3,48.3c-21.8,5.2-46-11.7-45.7-22c0.4-11.6,15-11,22.3,1.3
		c11.2,18.9,49.7,5.7,64-20.7L112.3,257.6z"/>
	<path class="st9" d="M50.6,308.3c-11.7,0-23.1-5-30.4-10.9c-5.5-4.5-8.6-9.5-8.5-13.6c0.2-4.9,2.6-8.4,6.8-9.5
		c5.3-1.4,13.3,1.7,18.3,10.1c4.1,6.9,11.6,8.3,17.1,8.2c16.5-0.3,35.5-12.7,44.3-28.8c0.1-0.3,0.3-0.5,0.6-0.6l12.7-7
		c0.5-0.3,1.2-0.2,1.6,0.1c0.5,0.4,0.7,1,0.5,1.6c-5.9,22.6-28.8,43.3-54.4,49.4C56.4,308,53.5,308.3,50.6,308.3z M21.3,277
		c-0.7,0-1.3,0.1-1.9,0.2c-2.8,0.7-4.5,3.1-4.6,6.7c-0.1,3.1,2.7,7.3,7.4,11.2c8.5,6.9,23,12.5,36.4,9.3
		c23.3-5.5,44.2-23.6,51.2-43.8l-9.1,5c-9.3,16.8-29.3,29.6-46.6,30c-8.9,0.2-16-3.2-19.8-9.6C30.7,279.9,25.4,277,21.3,277z"/>
</g>
<path class="st11" d="M29.8,170.8c-0.1,0.1-0.3,0.2-0.4,0.3c0.2-0.1,0.4-0.2,0.7-0.2C29.9,170.9,29.9,170.9,29.8,170.8z"/>
<path class="st11" d="M44.4,168.6c-0.2,0-0.4,0-0.7,0c-4.8,0-9.5,0.8-13.8,2.4C35.5,173.6,40.3,171.6,44.4,168.6z"/>
<path class="st12" d="M111.9,146.3c-5.8-4.4-12.5-5.9-19.5-5.9c-9.2,0-19,2.7-28.2,5.1l-1.1,0.3c-22.6,6.1-23.7,20.2-25,35.2
	c-0.6,7.2-1.2,14.5-4.4,20.7c-2,3.7-4.5,6.8-6.9,9.8c-4.9,6-9.5,11.6-9.5,22.2c0,32.6,32.5,32.6,61.1,32.6
	c14.7,0,27.4-4.9,36.5-14.2c10.3-10.4,15.6-26.1,15.4-45.3C130,175.2,124,155.4,111.9,146.3z"/>
<g>
	<path class="st13" d="M107,213.5c0,26.3-21.3,47.5-47.5,47.5S12,239.8,12,213.5c0-26.2,21.3-47.5,47.5-47.5S107,187.3,107,213.5"/>
	<path class="st14" d="M103.8,213.5c0,24.5-19.9,44.4-44.4,44.4S15.1,238,15.1,213.5c0-24.5,19.9-44.3,44.3-44.3
		S103.8,189,103.8,213.5"/>
	<path class="st15" d="M103.8,213.5c0-1.7-0.1-3.4-0.3-5l0-0.4l-0.1-0.8l0,0.1c-0.1-0.4-0.1-0.9-0.2-1.3c-1.2-1.6-2.5-3.2-3.9-4.7
		c0.2-1.2,0.4-2.4,0.5-3.7c0.1-0.8,0.1-1.6,0.1-2.4c-0.2-0.4-0.4-0.8-0.6-1.3l0.1,0.1c-0.1-0.3-0.3-0.5-0.4-0.8l-0.1-0.1
		c-0.3-0.6-0.7-1.2-1-1.8l-0.1-0.1v0c-0.7-1.3-1.6-2.6-2.4-3.8c-1.8-1.4-3.6-2.6-5.6-3.7c-0.2-1.1-0.4-2.2-0.7-3.3
		c-0.9-0.8-1.9-1.6-2.8-2.3c0.5,1.5,0.9,3,1.2,4.5c-1.7-0.8-3.6-1.5-5.5-2.1c-0.8-0.2-1.6-0.5-2.5-0.7c-0.4-1.9-1-3.8-1.9-5.6
		c1.1,0.1,2.3,0.3,3.4,0.5c-1.4-0.8-2.8-1.4-4.2-2.1l0-0.1c-1-0.4-2.1-0.8-3.2-1.2l0.4,0.6c-2.4-0.1-4.9,0-7.3,0.3
		c-0.3-0.4-0.6-0.7-0.9-1.1c-0.4-0.4-0.8-0.8-1.2-1.2c0.6-0.2,1.2-0.3,1.8-0.5c-0.9-0.1-1.8-0.3-2.8-0.3l0,0
		c-0.8-0.1-1.6-0.1-2.4-0.2l-0.2,0h0c-0.5,0-0.9,0-1.4,0l0.6,0.4c-1.8,0.7-3.6,1.5-5.3,2.4c-0.8-0.3-1.7-0.6-2.6-0.8
		c0.4-0.5,0.8-1.1,1.3-1.6c-0.3,0-0.7,0.1-1,0.1l0.1,0l-0.5,0.1l-0.7,0.1c-0.3,0-0.6,0.1-0.8,0.1l-0.1,0v0
		c-4.5,0.9-8.8,2.5-12.8,4.7v0l-0.5,0.3c-0.3,0.2-0.6,0.3-0.9,0.5l-0.4,0.2v0c-1.2,0.8-2.4,1.6-3.6,2.5v0l-0.2,0.1
		c-0.6,0.4-1.1,0.9-1.7,1.3l0,0h0c-1,0.9-2,1.8-2.9,2.7h0l-0.3,0.3l-0.7,0.7l0,0.1c-0.3,0.3-0.6,0.6-0.8,0.9l0.3,0h0.1
		c-0.4,0.7-0.7,1.4-1,2.1c-0.4,0-0.8,0.1-1.2,0.1c-0.6,0.8-1.1,1.5-1.7,2.3c0.7-0.1,1.4-0.2,2.1-0.3c-0.1,0.5-0.3,1-0.3,1.5l0,0.4
		c-1.4,0.8-2.8,1.6-4.1,2.4l-0.2,0.3l0,0l-0.2,0.4c-0.2,0.4-0.5,0.9-0.7,1.4l-0.2,0.4c-0.2,0.4-0.4,0.8-0.5,1.2l0,0l-0.2,0.4
		c0.2,1.3,0.6,2.6,1,3.9c-1.1,1.4-2.1,2.8-3,4.3c-0.1-0.3-0.2-0.5-0.3-0.8c-0.1,0.5-0.2,1.1-0.3,1.7l0,0l0,0
		c-0.1,0.8-0.2,1.6-0.3,2.4l0,0c-0.1,1-0.2,2-0.2,3.1c0.3-0.6,0.6-1.2,0.9-1.8c1.2,2.4,2.8,4.6,4.7,6.5c-0.6,2.8-1,5.6-1.1,8.2
		l-0.1-0.1c-1.5-1.5-2.9-3.1-4-4.8c0.2,1.5,0.5,3,0.8,4.4c0.6,0.6,1.2,1.3,1.8,1.9c0.5,0.4,0.9,0.9,1.4,1.3c0,2.3,0.1,4.5,0.4,6.5
		c0.8,1.6,1.8,3.1,2.8,4.6l-0.1,0l0.4,0.6l0.1,0.1l0,0c0.8,1.1,1.7,2.2,2.6,3.3c2,1,4.2,1.8,6.4,2.4c0.6,1.8,1.3,3.6,2.1,5.3
		c0.7,0.5,1.4,1,2.2,1.4l-0.1,0c2.1,1.3,4.4,2.4,6.7,3.3c1.8,0.2,3.6,0.3,5.4,0.3l0.8,0c0.5,0,1,0,1.5-0.1c0.7,0.8,1.4,1.6,2.2,2.4
		c1.1,0.2,2.2,0.3,3.3,0.4c-1-0.9-1.9-1.9-2.9-2.9c3.5-0.3,7-1,10.4-2c1.3,1.5,2.7,2.9,4.1,4.3c0.8-0.2,1.6-0.3,2.4-0.5
		c-1.5-1.4-3-2.9-4.4-4.4c2.7-0.9,5.3-1.9,7.8-3.2c1.6,2.2,2.9,3.9,3.8,5c0.6-0.3,1.3-0.6,1.9-0.9c-0.9-1.1-2.2-2.8-3.9-5.1
		c2.6-1.3,5-2.9,7.4-4.6l0.4-0.3c0.9,2,1.8,3.9,2.6,5.9c0.6-0.4,1.1-0.9,1.7-1.3c-0.8-1.9-1.7-3.9-2.6-5.8c2.8-2.2,5.3-4.5,7.6-7
		c0.8,1.7,1.6,3.5,2.4,5.2c0.5-0.6,0.9-1.3,1.4-1.9c-0.7-1.7-1.5-3.3-2.3-5c2.5-3,4.7-6.2,6.4-9.5c0.5,1.2,0.8,2.4,1.2,3.6
		c0.4-1.2,0.7-2.4,1-3.6c-0.3-0.8-0.6-1.7-1-2.5c0.8-1.8,1.5-3.7,2.1-5.5C103.8,215,103.8,214.2,103.8,213.5 M45.6,244.2
		c-1.6-2.9-3-6-4.2-9.1l0.8,0c2,0,3.9-0.1,5.9-0.4c1-0.2,2-0.3,3.1-0.6c1.5,3,3.1,5.9,4.9,8.6c-3.1,0.8-6.3,1.3-9.4,1.5
		C46.3,244.2,46,244.2,45.6,244.2 M30.3,223v-0.6c1.9,0.7,4,1.2,6.1,1.5l0.1,0.5c0.5,2.9,1.2,5.7,2,8.5c-2.6-0.3-5.2-0.8-7.6-1.6
		C30.6,228.6,30.4,225.8,30.3,223 M23.1,215.7c0.5-2.3,1.1-4.5,1.9-6.7c1.2,1,2.5,1.9,4,2.7c-0.3,2.5-0.5,5-0.6,7.6
		C26.4,218.3,24.7,217.2,23.1,215.7 M24.9,197.7c0.4,1.1,0.9,2.1,1.5,3c-0.8,1.5-1.5,3-2.2,4.6c-1.1-1.3-1.9-2.7-2.6-4.1
		C22.7,200,23.8,198.9,24.9,197.7 M26.2,191.8c0.7-0.4,1.5-0.7,2.3-1.1c0,0.5,0,0.9,0,1.3c-0.8,0.6-1.6,1.2-2.3,1.9
		C26.1,193.2,26.1,192.5,26.2,191.8 M78.2,185.3c0,0.7,0,1.3,0,2c-2.2-0.9-4.6-1.6-6.9-2.2c0-1.5-0.2-3-0.5-4.4
		c2.4,0.1,4.8,0.4,7.1,0.9C78,182.8,78.2,184,78.2,185.3 M73,220.3c-1.7-2.7-3.4-5.2-5.2-7.7l0.8-0.7c1.6-1.6,3.1-3.4,4.4-5.1
		c2.1,2.2,4.2,4.5,6.2,6.9c-1.6,2.1-3.4,4.1-5.4,6L73,220.3 M31.2,210.6c0.3-1.6,0.6-3.3,1-4.8c1.2,0.6,2.5,1,3.8,1.2
		c-0.2,1.7-0.3,3.3-0.3,5C34.1,211.7,32.6,211.2,31.2,210.6 M30.7,197.5c0.4,0.5,0.9,1,1.4,1.4c-0.5,1.2-0.9,2.5-1.2,3.7
		c-0.8-0.6-1.5-1.3-2.1-2C29.4,199.5,30,198.5,30.7,197.5 M27.8,202.6c0.8,0.8,1.6,1.5,2.5,2.2c-0.4,1.6-0.8,3.2-1,4.9
		c-1.3-0.7-2.4-1.6-3.5-2.6C26.4,205.5,27.1,204,27.8,202.6 M38,207.3c0.3,0,0.7,0.1,1,0.1l0.6,0c1,0,2.1-0.1,3.1-0.2
		c0.3,1.7,0.6,3.4,0.9,5c-0.5,0.1-1.1,0.1-1.6,0.2c-1.5,0.1-2.9,0.1-4.4-0.1C37.7,210.6,37.8,208.9,38,207.3 M69.2,186.7v0.1
		c-0.1,1.5-0.4,3.1-0.8,4.6c-1.6-0.6-3.2-1.2-4.9-1.7c0.2-0.5,0.3-1.1,0.4-1.6c0.1-0.8,0.2-1.5,0.2-2.3
		C65.8,186,67.5,186.3,69.2,186.7 M72.8,203.5c-1.8-1.7-3.6-3.3-5.4-4.9c0.9-1.5,1.6-3,2.2-4.5c2.2,0.9,4.4,2,6.4,3.1
		C75.1,199.4,74.1,201.5,72.8,203.5 M66.7,210.9c-1.5-2.1-3-4-4.5-6c1.5-1.4,2.8-3,3.9-4.6c1.8,1.5,3.7,3.1,5.4,4.9
		c-1.3,1.8-2.7,3.5-4.4,5.2L66.7,210.9 M46.1,213.8c1.9-0.4,3.8-1,5.6-1.8c1.2,2.4,2.4,4.7,3.5,6.9c-2.3,1.1-4.6,1.9-7,2.4
		C47.4,218.8,46.7,216.3,46.1,213.8 M53.5,211.1c2.3-1.2,4.6-2.6,6.6-4.3l0.6-0.5c1.5,1.9,3,3.9,4.5,6c-2.5,2.2-5.3,4.1-8.2,5.7
		C55.9,215.8,54.7,213.5,53.5,211.1 M53.7,194.9c0.6-0.7,1.2-1.3,1.7-2.1c1.1,0.7,2.3,1.4,3.4,2.1c-0.7,1-1.5,2-2.4,2.9
		C55.4,196.8,54.5,195.8,53.7,194.9 M56.9,190c1.3,0.3,2.6,0.7,3.9,1c-0.3,0.7-0.6,1.4-1,2.1c-1.1-0.7-2.3-1.4-3.4-2.1
		C56.6,190.7,56.8,190.3,56.9,190 M60.4,196c1.4,1,2.8,2,4.2,3.1c-1,1.5-2.2,2.9-3.6,4.2c-1.1-1.4-2.2-2.7-3.3-4
		C58.7,198.3,59.6,197.2,60.4,196 M65.7,197.3c-0.8-0.6-1.5-1.2-2.3-1.8c-0.6-0.5-1.3-0.9-1.9-1.3c0.5-0.9,0.9-1.8,1.3-2.7
		c1.7,0.5,3.3,1.1,4.9,1.7C67.1,194.7,66.5,196,65.7,197.3 M61.8,187.6c-0.1,0.5-0.2,0.9-0.3,1.4c-1.3-0.4-2.6-0.7-3.9-1
		c0.2-0.6,0.3-1.2,0.4-1.8c0-0.4,0.1-0.7,0.1-1.1c1.3,0.1,2.6,0.2,3.9,0.3C62,186.2,61.9,186.9,61.8,187.6 M58.1,183.1
		c-0.1-0.5-0.2-1-0.3-1.5c1.2-0.2,2.4-0.4,3.6-0.6c0.2,0.7,0.4,1.5,0.5,2.3C60.6,183.3,59.4,183.2,58.1,183.1 M50.7,197.5
		c0.5-0.4,1-0.8,1.5-1.2c0.9,0.9,1.8,1.9,2.6,2.9c-0.7,0.7-1.5,1.3-2.4,1.9c-0.9,0.6-1.9,1.2-2.9,1.7c-0.5-1.2-1.1-2.4-1.6-3.6
		C48.9,198.7,49.8,198.2,50.7,197.5 M53.6,202.7c0.9-0.6,1.8-1.3,2.6-2c1.1,1.3,2.2,2.6,3.3,4l-0.6,0.5c-1.9,1.6-4,3-6.2,4.1
		c-0.7-1.5-1.5-3.1-2.2-4.7C51.5,204.1,52.6,203.4,53.6,202.7 M50.8,210.2c-1.7,0.7-3.4,1.2-5.1,1.6c-0.4-1.7-0.7-3.3-0.9-5.1
		c1.3-0.3,2.6-0.7,3.8-1.2C49.3,207.1,50.1,208.6,50.8,210.2 M40.1,214.4c0.7,0,1.4,0,2.1-0.1c0.6-0.1,1.3-0.1,1.9-0.2
		c0.6,2.6,1.3,5.1,2.1,7.6c-2.7,0.5-5.4,0.6-7.9,0.4c-0.3-2.6-0.5-5.2-0.6-7.8C38.5,214.4,39.3,214.4,40.1,214.4 M40.8,224.2
		c1.9,0,3.9-0.2,5.9-0.5l0.2,0c1,3,2.2,5.8,3.4,8.6c-0.8,0.2-1.6,0.3-2.5,0.4c-2.4,0.4-4.8,0.5-7.1,0.4c-0.9-2.9-1.7-5.9-2.2-8.9
		C39.3,224.2,40,224.2,40.8,224.2 M48.8,223.2c2.5-0.6,4.9-1.5,7.3-2.6c1.5,2.9,3,5.6,4.5,8.1c-2.7,1.3-5.5,2.3-8.3,3
		C51,229,49.9,226.2,48.8,223.2 M58,219.8c3-1.6,5.8-3.5,8.4-5.8c1.7,2.5,3.4,5,5.1,7.7c-2.8,2.4-5.9,4.5-9.1,6.1
		C61,225.3,59.5,222.6,58,219.8 M74.2,205c1.4-2.2,2.6-4.4,3.5-6.7c2.6,1.5,5,3.2,7.2,5l0.2,0.1c-1.2,2.9-2.8,5.8-4.7,8.5
		C78.5,209.5,76.4,207.1,74.2,205 M85.9,201.4c-2.3-1.8-4.8-3.5-7.5-5c0.7-2,1.2-4.1,1.5-6.1c2.7,1.2,5.3,2.6,7.8,4.2
		C87.3,196.7,86.7,199.1,85.9,201.4 M76.7,195.3c-2.1-1.1-4.2-2.2-6.5-3.1c0.5-1.6,0.8-3.3,1-5c2.3,0.6,4.6,1.4,6.8,2.2
		C77.7,191.4,77.3,193.3,76.7,195.3 M69.2,184.6c-1.7-0.4-3.4-0.7-5.2-0.9c-0.1-1-0.3-1.9-0.5-2.8c1.6-0.1,3.2-0.2,4.7-0.2l0.5,0
		C69,181.9,69.1,183.2,69.2,184.6 M62.7,178.9c-0.3-0.7-0.7-1.4-1.1-2c-0.3-0.4-0.7-0.9-1-1.3c1.8-0.4,3.6-0.8,5.3-1.1
		c0.9,1.3,1.6,2.6,2.1,4C66.2,178.6,64.5,178.7,62.7,178.9 M59.9,178.1c0.2,0.4,0.5,0.7,0.7,1.1c-1.2,0.2-2.3,0.3-3.5,0.6
		c-0.2-0.5-0.5-0.9-0.8-1.3c-0.3-0.4-0.6-0.7-1-1.1c1-0.4,2-0.7,3.1-1.1C58.9,176.8,59.4,177.4,59.9,178.1 M53.3,175.9l-0.5-0.3
		c0.8-0.5,1.6-1,2.4-1.4c0.4,0.2,0.7,0.4,1.1,0.6C55.3,175.1,54.3,175.5,53.3,175.9 M46.1,200c0.5,1.2,1.1,2.4,1.6,3.6
		c-1.1,0.4-2.2,0.8-3.3,1.1c-0.2-1.3-0.3-2.6-0.4-4C44.7,200.5,45.4,200.3,46.1,200 M42.5,205.1c-1.1,0.2-2.3,0.2-3.4,0.2
		c-0.3,0-0.6,0-0.9-0.1c0.2-1.3,0.4-2.7,0.6-4c0.3,0,0.6,0,0.9,0c0.8,0,1.5-0.1,2.3-0.2C42.1,202.5,42.3,203.8,42.5,205.1 M36.8,201
		c-0.2,1.3-0.4,2.6-0.6,3.9c-1.3-0.3-2.4-0.7-3.5-1.2c0.4-1.3,0.8-2.5,1.2-3.8C34.8,200.4,35.8,200.8,36.8,201 M28.9,194.2
		c0.2,0.5,0.3,0.9,0.6,1.4c-0.7,1-1.3,2.1-1.9,3.1c-0.4-0.8-0.7-1.7-1-2.5C27.3,195.5,28.1,194.9,28.9,194.2 M30.9,212.6
		c1.5,0.6,3.1,1.1,4.8,1.4c0,2.6,0.2,5.2,0.5,7.8c-2-0.3-4-0.9-5.8-1.6C30.4,217.6,30.6,215.1,30.9,212.6 M39.2,235
		c1.1,3.2,2.5,6.3,4.1,9.3c-3.3-0.1-6.5-0.5-9.6-1.3c-1-3-1.8-6.2-2.4-9.5C33.9,234.3,36.5,234.8,39.2,235 M53.2,233.6
		c2.9-0.8,5.7-1.8,8.5-3.2c1.8,3.1,3.5,5.8,5.1,8.4c-2.8,1.4-5.7,2.5-8.7,3.4C56.3,239.5,54.7,236.6,53.2,233.6 M63.5,229.6
		c3.2-1.7,6.3-3.8,9.1-6.2c1.2,1.9,2.4,3.9,3.5,5.9c0.5,0.9,1,1.8,1.5,2.7c-2.9,2.3-5.9,4.2-9.1,5.9C67,235.4,65.3,232.6,63.5,229.6
		 M77.9,228.3c-1.2-2.1-2.5-4.2-3.8-6.3c0.4-0.3,0.7-0.6,1.1-1c1.9-1.8,3.7-3.8,5.3-5.8c2.1,2.6,4,5.4,5.9,8.3
		c-2.1,2.5-4.5,4.9-7.1,7.1C78.8,229.9,78.4,229.1,77.9,228.3 M81.8,213.5c2-2.8,3.7-5.8,5-8.8c2.6,2.3,5,4.7,7,7.3
		c-1.6,3.4-3.6,6.8-6.1,9.9C85.8,219,83.9,216.2,81.8,213.5 M87.6,202.7c0.9-2.3,1.5-4.7,2-7.1c1.9,1.3,3.6,2.7,5.3,4.2
		c0.8,0.7,1.5,1.4,2.3,2.2c-0.6,2.6-1.4,5.3-2.4,7.8C92.6,207.3,90.2,204.9,87.6,202.7 M97.9,192.5c0.1,1.6,0,3.3-0.1,5
		c-0.1,0.7-0.1,1.4-0.3,2.1c-0.4-0.4-0.9-0.8-1.3-1.2c-2-1.8-4.1-3.4-6.3-4.9c0.2-1.4,0.3-2.9,0.3-4.3c0-0.9,0-1.9-0.1-2.8
		C92.9,188,95.6,190.1,97.9,192.5 M81.5,182.5c2.3,0.7,4.4,1.6,6.4,2.6c0.1,1.3,0.2,2.6,0.2,3.9c0,1-0.1,2-0.2,3.1
		c-2.5-1.5-5.1-2.9-7.8-4c0.1-1,0.1-1.9,0.1-2.9c0-1.1-0.1-2.1-0.2-3.1C80.5,182.2,81,182.4,81.5,182.5 M72.8,174.1
		c0.8,0,1.7,0,2.5,0.1c0.9,1.7,1.6,3.4,2,5.3c-2.3-0.4-4.7-0.7-7.2-0.8c-0.5-1.5-1.2-3-2-4.3C69.7,174.2,71.2,174.1,72.8,174.1
		 M62.5,170.9c0.7,0.5,1.3,1.1,1.9,1.8l0,0c-1.9,0.3-3.8,0.7-5.7,1.3c-0.4-0.4-0.9-0.7-1.4-1C59,172.2,60.7,171.5,62.5,170.9
		 M52.8,173.3c-0.8,0.5-1.5,0.9-2.2,1.4l-0.5-0.1c0.4-0.5,0.8-1.1,1.2-1.6C51.7,173,52.2,173.1,52.8,173.3 M50.7,170.2l-0.4,0.6
		c-0.4,0-0.7-0.1-1.1-0.1h-0.3C49.5,170.5,50.1,170.3,50.7,170.2 M48.8,172.7c-0.4,0.5-0.7,1-1.1,1.5c-0.9-0.1-1.8,0-2.7,0.1
		c0.1-0.5,0.2-0.9,0.2-1.3c1.1-0.2,2.2-0.3,3.3-0.3H48.8 M43.1,173.5c-0.1,0.4-0.2,0.8-0.2,1.2c-1.4,0.3-2.8,0.9-4.2,1.6
		c-0.1-0.3-0.2-0.6-0.3-0.9C39.9,174.6,41.5,173.9,43.1,173.5 M35.7,177c0.3-0.2,0.6-0.4,0.8-0.5c0.1,0.3,0.2,0.6,0.3,0.9
		c-0.3,0.2-0.7,0.4-1,0.7c-0.5,0.4-1,0.7-1.4,1.1c-0.3-0.2-0.6-0.3-0.9-0.5C34.3,178,35,177.5,35.7,177 M31.9,180.1
		c0.3,0.2,0.7,0.3,1,0.5c-0.6,0.6-1.1,1.3-1.6,1.9c-0.5-0.1-0.9-0.1-1.4-0.1C30.6,181.6,31.2,180.9,31.9,180.1 M28.7,184.4
		c0.5,0,1,0.1,1.5,0.1c-0.3,0.5-0.5,1-0.7,1.5c-0.6,0-1.2,0.1-1.8,0.2C28,185.5,28.3,185,28.7,184.4 M26.9,188.3
		c0.6-0.1,1.3-0.1,1.9-0.2l0,0.2c-0.7,0.3-1.5,0.6-2.2,1C26.7,188.9,26.8,188.6,26.9,188.3 M20.1,195.4c1.3-0.9,2.6-1.7,4-2.5
		c0,0.9,0.1,1.8,0.2,2.6c-1.2,1.1-2.4,2.3-3.5,3.6C20.5,197.9,20.3,196.6,20.1,195.4 M17.2,207.6c0.9-1.6,1.9-3.2,3.1-4.6
		c0.8,1.6,1.8,3.1,3,4.4l0.1,0.1c-0.8,2.2-1.5,4.4-2.1,6.5C19.6,212.1,18.2,210,17.2,207.6 M22.6,218c1.7,1.4,3.6,2.6,5.7,3.5
		c0,0.5,0,1,0,1.5c0,2.5,0.2,5,0.5,7.5c-2.5-1.1-4.9-2.4-7-4.1C21.9,223.6,22.2,220.8,22.6,218 M23.1,238.6
		c-0.7-3.2-1.1-6.4-1.2-9.6c2.2,1.6,4.7,2.9,7.3,3.8c0.5,3.3,1.3,6.5,2.2,9.5C28.4,241.4,25.7,240.1,23.1,238.6 M37.3,251.6
		c-1-2-2-4.2-2.8-6.3c3.1,0.7,6.3,1,9.6,1l0.3,0c1.4,2.3,2.9,4.6,4.6,6.7C45,253,41,252.6,37.3,251.6 M51.6,252.9
		c-1.8-2.1-3.4-4.3-4.8-6.7c3.5-0.2,7-0.8,10.4-1.7c1.6,2.3,3.2,4.5,5,6.6C58.7,252.1,55.2,252.7,51.6,252.9 M64.4,250.5
		c-1.8-2.1-3.5-4.3-5.1-6.5c2.9-0.9,5.8-2,8.6-3.4c1.7,2.6,3.2,4.8,4.6,6.8C69.8,248.6,67.1,249.7,64.4,250.5 M81.7,241.8
		c-2.4,1.7-4.9,3.2-7.4,4.6c-1.4-1.9-2.9-4.2-4.6-6.8c3.1-1.7,6.1-3.6,8.9-5.8c1.3,2.5,2.6,5,3.8,7.5L81.7,241.8 M84.1,240
		c-1.2-2.5-2.5-5-3.9-7.5c2.6-2.2,5.1-4.6,7.2-7.1c1.5,2.4,2.9,4.9,4.2,7.5C89.4,235.4,86.9,237.8,84.1,240 M93.1,231.2
		c-1.3-2.6-2.7-5.1-4.2-7.5c2.5-3.1,4.6-6.5,6.3-9.9c1.7,2.4,3.1,4.9,4.3,7.4C97.8,224.7,95.6,228.1,93.1,231.2 M96.1,211.7
		c1.1-2.6,2-5.2,2.6-7.9c1.6,1.9,3.1,3.8,4.4,5.8c-0.5,3.1-1.4,6.2-2.6,9.1C99.3,216.3,97.8,213.9,96.1,211.7"/>
</g>
<g>
	<path class="st8" d="M118.6,220.1c-12.8,4.7-28.7,1.3-36.9-6.2c-8.2-7.5-2.4-12.7,4-13.2c6.3-0.5,23.3,8.8,35,1.9"/>
	<path class="st9" d="M100.8,223.4c-7.7-0.9-15.1-3.8-20.1-8.4c-4.8-4.4-4.9-8-4.1-10.1c1.1-3.1,4.6-5.3,9-5.7
		c2.9-0.2,6.5,0.7,10.8,1.7c5.6,1.4,12,3,17.3,2c2.8-0.5,5.3-2.3,6.6-4.8c0.4-0.7,1.3-1,2-0.6c0.7,0.4,1,1.3,0.6,2
		c-1.8,3.3-5.1,5.6-8.7,6.3c-6,1.1-12.7-0.5-18.6-2c-3.8-0.9-7.4-1.8-9.8-1.6c-3.2,0.3-5.8,1.7-6.4,3.7c-0.7,1.9,0.5,4.4,3.3,7
		c8.2,7.6,23.7,10.2,35.3,5.9c0.8-0.3,1.6,0.1,1.9,0.9c0.3,0.8-0.1,1.6-0.9,1.9C113.5,223.6,107,224.2,100.8,223.4z"/>
</g>
<g>
	<g>
		<path class="st8" d="M116.2,232c-13.2-10.5-30.3-3.4-36.3,9.4c-6,12.8-11.9,26.9-2.1,26.3s40.7-3.4,49.2-31.3"/>
		<path class="st9" d="M77.2,269.2c-2.3,0-4-0.8-5.1-2.3c-2.9-4.3,0.3-13.2,6.4-26.1c3.4-7.3,10.4-12.9,18.1-14.7
			c7.2-1.7,14.5,0,20.5,4.8c0.6,0.5,0.8,1.5,0.2,2.1c-0.5,0.6-1.5,0.8-2.1,0.2c-5.3-4.2-11.6-5.7-18-4.2c-6.9,1.6-13,6.6-16.1,13.1
			c-2.7,5.8-9.2,19.4-6.6,23.2c0.2,0.3,0.8,1.1,3.1,1c25.7-1.5,42.3-12,47.8-30.2c0.2-0.8,1.1-1.2,1.9-1c0.8,0.2,1.2,1.1,1,1.9
			c-6,19.6-23.4,30.8-50.5,32.4C77.7,269.2,77.4,269.2,77.2,269.2z"/>
	</g>
	<g>
		<g>
			<path class="st8" d="M79.9,262.2c0,0-2,11.7-13,11.7s-6.3-13.3-7.7-22c-1.3-8.7-6.7-20,1.3-25.3c8-5.3,17.7,10.3,19.3,16.3
				C82.3,250.9,81.9,255.9,79.9,262.2z"/>
			<path class="st9" d="M66.9,275.4c-2.8,0-4.9-0.8-6.4-2.3c-2.9-3-2.7-8.2-2.6-13.3c0.1-2.6,0.2-5.4-0.2-7.6
				c-0.3-1.8-0.8-3.8-1.3-5.9c-1.8-7.6-3.9-16.2,3.2-20.9c2.2-1.5,4.7-1.7,7.3-0.8c6.8,2.5,12.9,13,14.3,17.9c2.5,8.7,1.9,14,0,20.1
				C80.6,267.1,76.6,275.4,66.9,275.4z M64.1,227c-0.9,0-1.8,0.3-2.6,0.8c-5.4,3.6-3.7,10.4-2,17.7c0.5,2.1,1,4.2,1.3,6.1
				c0.4,2.5,0.3,5.4,0.2,8.2c-0.1,4.4-0.3,9,1.7,11.1c0.9,0.9,2.3,1.4,4.3,1.4c9.6,0,11.4-10,11.5-10.4l0-0.2
				c1.8-5.7,2.3-10.4,0-18.5c-1.2-4.5-6.9-13.9-12.4-16C65.4,227.1,64.7,227,64.1,227z"/>
		</g>
	</g>
</g>
<g>
	<g>
		<path class="st8" d="M18.4,228.3c-6.6-7.9-16.8-4.4-16.9,5.4c-0.1,8.1,9.7,25.4,18.6,29.8c7.7,3.8,8-5.4,7.4-8.6
			C26.4,249.2,21.9,232.5,18.4,228.3z"/>
		<path class="st9" d="M23.4,265.9c-1.1,0-2.4-0.3-3.9-1c-9.4-4.6-19.6-22.5-19.4-31.2c0.1-5.1,2.7-9.2,6.9-10.7
			c4.3-1.5,9.2,0.1,12.7,4.3c4,4.8,8.5,22.9,9.4,27.3c0.4,1.9,0.7,7.8-2.5,10.3C25.7,265.4,24.7,265.9,23.4,265.9z M10.1,225.4
			c-0.8,0-1.5,0.1-2.2,0.4c-3,1.1-4.8,4-4.9,7.9c-0.1,7.5,9.5,24.4,17.8,28.4c1.7,0.9,3,1,3.9,0.3c1.6-1.2,1.8-5.1,1.4-7.3
			c-1.2-6-5.5-22.1-8.7-26l0,0C15.2,226.7,12.6,225.4,10.1,225.4z"/>
	</g>
</g>
<g>
	<path class="st10" d="M27.3,166.9c-13,3.7-14.3-2.3-11.3-3c3-0.7,11-5.3,15-9.3L27.3,166.9z"/>
	<path class="st9" d="M20,169.6c-3.4,0-5.1-1-5.9-1.9c-0.9-0.9-1.2-2.1-0.9-3.2c0.3-1.1,1.2-1.9,2.4-2.1c2.6-0.6,10.3-5,14.3-8.9
		c0.5-0.5,1.2-0.6,1.8-0.2c0.6,0.4,0.9,1.1,0.7,1.7l-3.7,12.3c-0.1,0.5-0.5,0.9-1,1C24.5,169.2,22,169.6,20,169.6z M27.3,166.9
		L27.3,166.9L27.3,166.9z M16.1,165.4c0,0,0.1,0.2,0.4,0.4c0.6,0.4,3,1.5,9.6-0.2l2-6.7c-4.2,3.1-9.3,5.9-11.8,6.4
		C16.1,165.4,16.1,165.4,16.1,165.4z"/>
</g>
<g>
	<path class="st8" d="M126.6,167.2c-7.7-21.7-23.7-36.3-45.7-37s-40.3,9-50,24.3c-6.5,10.3-1.7,16,1.3,17.3s15.7-3.7,19.3-10.3
		c8.7,5.3,18.3,3,26.7,0.3"/>
	<path class="st9" d="M33.6,173.6c-0.8,0-1.4-0.1-1.9-0.3c-1.8-0.8-4-2.8-5-5.9c-0.8-2.7-1-7.3,3-13.6c10.3-16.3,29.5-25.7,51.3-25
		c21.6,0.7,38.7,14.5,47,38c0.3,0.8-0.1,1.6-0.9,1.9c-0.8,0.3-1.6-0.1-1.9-0.9c-7.9-22.3-24-35.4-44.3-36
		c-20.8-0.6-39,8.2-48.7,23.6c-2.7,4.2-3.6,8.1-2.7,11.1c0.7,2.2,2.2,3.6,3.3,4.1c1.9,0.8,13.9-3.3,17.4-9.7
		c0.2-0.4,0.5-0.6,0.9-0.7c0.4-0.1,0.8,0,1.2,0.2c8.2,5,17.4,2.7,25.4,0.2c0.8-0.2,1.6,0.2,1.9,1c0.3,0.8-0.2,1.6-1,1.9
		c-8.8,2.8-18.1,4.8-26.6,0.2C48,169.2,38.5,173.6,33.6,173.6z"/>
</g>
<path class="st9" d="M48.9,152.9c-2.4,1.8-1.7,4,1,4.3c2.7,0.3,2.9,0.5,5.3-1.3c2.7-2,3-5.3,0-5S50.3,151.9,48.9,152.9z"/>
<circle class="st9" cx="38.9" cy="154.2" r="3"/>
<circle class="st9" cx="73.6" cy="145.9" r="3"/>
<g>
	<path class="st10" d="M106.9,139.6c-6-0.5-1.3,4,0.7,5.7s16.3,14.7,29.7,10.7c13.3-4,17.3-15,14.7-15.7
		C149.3,139.6,119.3,140.6,106.9,139.6z"/>
	<path class="st9" d="M131.9,158.2c-7.5,0-16-3.9-24.9-11.5l-0.4-0.3c-5-4.2-4.2-6-4-6.7c0.8-1.9,3.5-1.7,4.4-1.6l0,0
		c6.8,0.5,19.1,0.5,29.1,0.4c9.7-0.1,14.9-0.1,16.2,0.3c1.2,0.3,1.9,1.3,1.9,2.8c0.1,3.6-4.8,12.3-16.5,15.8
		C135.8,157.9,133.9,158.2,131.9,158.2z M105.7,141c0.4,0.6,1.3,1.8,2.9,3l0.4,0.3c10.3,8.8,20.2,12.4,27.9,10.1
		c7.3-2.2,11.8-6.7,13.6-10.2c0.7-1.3,0.8-2.2,0.8-2.6c-1.8-0.2-8.6-0.2-15.1-0.1c-10,0.1-22.4,0.1-29.3-0.4
		C106.3,141,105.9,141,105.7,141z"/>
</g>
<g>
	<g>
		<path class="st8" d="M21.6,194.9c-3.5-1.8-13.2,3.4-12.7,9.3c0.1,1.2,0.4,2.2,0.9,2.9c2.1,3.1,7,2.9,10.9-0.2
			C25.5,203.1,24.9,196.7,21.6,194.9z"/>
		<path class="st9" d="M14.3,210.9c-0.4,0-0.8,0-1.3-0.1c-1.9-0.3-3.6-1.3-4.6-2.8c-0.7-1-1.1-2.2-1.2-3.6c-0.3-3.1,1.8-6.5,5.4-8.9
			c2.9-1.9,7-3.2,9.5-1.9l0,0c1.9,1,3.1,3.1,3.4,5.5c0.3,3.3-1.2,6.7-4,9C19.4,209.9,16.8,210.9,14.3,210.9z M19.8,196.1
			c-1.3,0-3.4,0.6-5.4,2c-2.1,1.4-4.3,3.7-4.1,6.1c0.1,0.9,0.3,1.6,0.7,2.2c0.7,1,1.8,1.4,2.5,1.5c1.9,0.3,4.2-0.5,6.2-2.1
			c2.1-1.7,3.2-4.1,2.9-6.4c-0.1-1.5-0.8-2.6-1.8-3.2l0,0C20.6,196.1,20.2,196.1,19.8,196.1z"/>
	</g>
</g>
</svg>
