<?xml version="1.0" encoding="utf-8"?>
<!-- Generator: Adobe Illustrator 26.0.1, SVG Export Plug-In . SVG Version: 6.00 Build 0)  -->
<svg version="1.1" id="nuevo" xmlns="http://www.w3.org/2000/svg" xmlns:xlink="http://www.w3.org/1999/xlink" x="0px" y="0px"
	 viewBox="0 0 232.9 317.9" style="enable-background:new 0 0 232.9 317.9;" xml:space="preserve">
<style type="text/css">
	.st0{fill-rule:evenodd;clip-rule:evenodd;fill:#FF0000;}
	.st1{fill-rule:evenodd;clip-rule:evenodd;}
	.st2{fill-rule:evenodd;clip-rule:evenodd;fill:#005683;}
	.st3{fill-rule:evenodd;clip-rule:evenodd;fill:#FFD200;}
	.st4{fill-rule:evenodd;clip-rule:evenodd;fill:#FF8800;}
	.st5{fill:#FF0000;}
	.st6{fill-rule:evenodd;clip-rule:evenodd;fill:#CC9900;}
	.st7{fill-rule:evenodd;clip-rule:evenodd;fill:#996633;}
</style>
<g>
	<g id="peineta_00000018218171798495371420000012144228355888324537_">
		<path id="Fill-5_00000052103120223623081610000005079176663415474860_" class="st0" d="M117.6,86.7c-2.9,0.2-5.3,0-8.2-0.6
			c-0.9-8.7-1.4-19.6,3-38.5c8,20.6,16.8,35.8,16.8,35.9C127.7,84.2,123.2,86.4,117.6,86.7 M104.2,84.5
			c-22.8-10.4-27-34.9-19.3-53.8C85.2,49.4,90.4,64,104.2,84.5 M135.1,79.9c3.6-15.6,9.6-30.5,13.2-46.1c0.7-3,1.3-7.7,0.2-12.9
			C159,37.3,157.8,62.9,135.1,79.9 M88.1,24.4c10.3-15.8,30-28.7,51.6-12.9c-0.1,0-13.9,0.6-3.9,15.4c5.4,8,5.7,14.3,1.5,27.3
			c-1.5,6.4-2,8.3-3.4,14.9C127.3,53.5,122,40.1,117.7,23c3.7-0.5,7.9-1.2,5.8-3.6c-0.3-0.3-19.9,1.6-20.1,1.7c-1.5,0.3-1.8,2-1.8,2
			c-0.2,1.4,0.1,1.4,4.4,1.1c1.1,6,1.6,8.8,4.4,17.6c-2,8.3-4.1,16.9-4.4,30.2C97.1,54.3,93.5,42,92.8,26.5c1.3-0.8,3-0.5,4.1-1.6
			c0.8-0.8,1.1-2.6,0.2-2.8C93.7,21.4,91.1,23.8,88.1,24.4 M119.2,1C85.3,3.8,63.4,54.8,93.3,81.5c30.3,27,67.8-7.9,66.5-40.3
			C158.8,16,138,0.1,119.2,1"/>
		<path d="M116.8,92.1c-8.5,0-16.7-3.3-24.1-9.9C79.1,70.1,74.7,51.9,80.9,33.3C87.1,14.8,102.4,1.4,119.1,0l0,0
			c9.8-0.5,19.9,3.4,27.8,10.6c8.5,7.8,13.4,18.6,13.9,30.5c0.8,18.9-11.6,39.3-28.8,47.4C126.9,91,121.8,92.1,116.8,92.1z M81.2,40
			C77.9,55.6,82.5,70.5,94,80.7c11.2,10,24.4,12.1,37.2,6c16.5-7.8,28.4-27.4,27.7-45.5c-0.5-11.3-5.2-21.7-13.3-29.1
			C138.1,5.3,128.5,1.6,119.2,2c-12,1-23.3,8.6-30.7,20c7-9.9,16.3-16.5,25.8-18.2c8.8-1.6,17.5,0.7,26,6.9l2.7,2l-3.3-0.1
			c0,0-4.5,0.2-6,3.1c-1.2,2.3-0.2,6,3,10.7c5.6,8.3,6,14.9,1.6,28.2c-1.5,6.3-2,8.3-3.3,14.8l-0.7,3.2l-1.2-3
			c-6.6-15.7-12-29.2-16.2-46.3l-0.3-1.1l1.1-0.2c1.7-0.2,5.1-0.8,5.5-1.4c0,0,0-0.1-0.1-0.2c-2.7,0-18.5,1.6-19.4,1.7
			c-0.7,0.1-0.9,1.2-0.9,1.2c0,0,0,0.1,0,0.1c0.6,0,1.8,0,3.3-0.1l0.9-0.1l0.2,0.9c1.1,6,1.6,8.7,4.4,17.5l0.1,0.3l-0.1,0.3
			c-2,8.3-4,16.8-4.3,30l-0.1,4l-1.8-3.6c-9-17.9-12.6-30.4-13.3-46l0-0.6l0.5-0.3c0.7-0.4,1.4-0.6,2.1-0.7c0.7-0.2,1.4-0.3,1.8-0.7
			c0.3-0.3,0.5-0.8,0.5-1.1c-1.8-0.3-3.3,0.4-5,1.1c-1.1,0.5-2.2,1-3.4,1.2l-2,0.4c-0.2,0.3-0.3,0.6-0.5,0.9l0.1,4
			c0.3,18.5,5.5,32.9,19.2,53.3l2,2.9l-3.2-1.5C84.2,76.5,78,57.4,81.2,40z M84.1,36.1c-4.6,16.6-0.3,36,17.2,45.9
			C90.2,64.8,85.2,51.6,84.1,36.1z M93.9,27.1c0.7,13.9,3.8,25.4,11.3,41c0.6-11.1,2.4-18.8,4.2-26.2c-2.6-8.2-3.2-11.1-4.2-16.6
			c-2.6,0.2-3.5,0.1-4.1-0.5c-0.5-0.6-0.4-1.3-0.4-1.8c0.2-1.2,1-2.6,2.6-2.9c0.2,0,5.5-0.6,10.1-1c10.4-0.9,10.5-0.9,10.9-0.4
			c1,1.1,0.9,1.9,0.7,2.5c-0.6,1.6-3,2.1-6,2.6c3.9,15.5,8.8,27.9,14.6,42c0.9-4.3,1.4-6.5,2.7-11.8l0-0.1
			c4.1-12.6,3.8-18.8-1.3-26.5c-3.7-5.5-4.7-9.8-3-12.9c1.2-2.1,3.4-3.1,5.1-3.6c-7.4-4.8-14.9-6.6-22.4-5.2
			c-8.8,1.6-17.4,7.6-24,16.7c0.1,0,0.1-0.1,0.2-0.1c1.9-0.8,4-1.8,6.4-1.2c0.6,0.1,1.1,0.6,1.3,1.2c0.3,1.1-0.2,2.5-0.9,3.2
			c-0.9,0.9-1.9,1.1-2.8,1.3C94.5,27,94.1,27,93.9,27.1z M115.4,87.8c-2.1,0-4-0.2-6.2-0.7l-0.7-0.1l-0.1-0.7
			c-0.9-8.8-1.5-19.8,3-38.9l0.7-3.2l1.2,3c7.9,20.4,16.7,35.6,16.7,35.7l0.6,0.9l-1,0.5c-1.5,0.7-6.2,3-11.9,3.4l0,0
			C116.9,87.8,116.2,87.8,115.4,87.8z M117.6,86.7L117.6,86.7L117.6,86.7z M110.3,85.3c2.5,0.5,4.6,0.6,7.2,0.4
			c4.5-0.3,8.3-1.8,10.2-2.7c-2-3.5-8.7-15.8-15.1-32C109.2,67.4,109.6,77.3,110.3,85.3z M133.5,82.4l0.6-2.7
			c1.8-7.7,4.2-15.3,6.5-22.7c2.4-7.6,4.9-15.5,6.7-23.3c0.7-2.9,1.2-7.5,0.2-12.5l-1.1-5.2l2.9,4.5c10.8,16.8,9.6,43-13.6,60.4
			L133.5,82.4z M150.1,25.8c0.1,3.3-0.3,6.2-0.8,8.3c-1.8,8-4.3,15.9-6.7,23.5c-2,6.5-4.1,13.1-5.8,19.8
			C155,62.2,157.3,41.1,150.1,25.8z"/>
	</g>
	<g id="Page-1_00000041291425596676853660000017458833944814731930_">
		<g id="レイヤー-1_00000071542316397959954840000010673588371627664543_">
			<path id="Fill-1_00000077281850353467655960000016690559576101664697_" class="st1" d="M219.4,92.8c-1.3-0.3-3.5-0.5-12.3-0.5
				c-2.8,0-6,0-9.5,0c-3.9,0-8,0-12.1,0c-6.6,0-15.9,0-22.4-0.4c-10.5-7.7-22.7-11.7-36.1-12.2C98,78.9,72.2,91.5,58.2,113.1
				c-4.7,4.5-13.6,9.5-16,10c-4,0.9-6.6,4.4-6.2,8.4c0.3,2.9,2.3,6.1,6.9,7.5c-0.5,0.5-1,1.1-1.5,1.6c-3.1,3.7-4.4,7.9-3.6,11.8
				c0.1,0.8,0.4,1.5,0.6,2.3C31.8,166,28.3,178.8,28.3,192c0,3.3,0.2,6.6,0.7,9.9c-1-0.2-2.1-0.3-3.1-0.3c-5,0-9.7,2.2-12.8,6
				c-3.4,4.2-4.6,9.9-3.4,15.9c2.5,12.3,21.1,33,36,36.5c1.5,0.3,2.9,0.5,4.1,0.5c4,0,7.2-1.7,9.2-4.7c0.6-1,1.1-2,1.4-3
				c10.1,7,21.8,11.3,34.2,12.6c2.7,8.8,9.9,10.2,14.4,10.2c6.8,0,12.6-2.8,16.8-7.8c0.4,0,0.8,0,1.1,0c2.9,0,6.4-0.2,10.5-0.8
				c-13,14.6-31.9,23.1-45.8,23.1h0c-5.9,0-13.7-1.5-17.9-8.6c-5.6-9.4-14.5-15.2-23.4-15.2c-9.3,0-15.7,6.5-16,16.3
				c-0.2,5.3,2.6,11,8,16.6c9.1,9.4,26.7,18.8,45.6,18.8c4.2,0,8.3-0.5,12.2-1.4c33.5-7.9,63.4-34.7,72.1-64.1
				C204.1,228,201.5,161,191,131.1c-0.7-2.1-1.5-4.1-2.4-6.1c1.3,0.1,2.6,0.2,3.8,0.2c2.9,0,5.8-0.4,8.5-1.2
				c16.6-5,24.1-17.3,23.9-24C224.7,96.4,222.6,93.6,219.4,92.8"/>
			<path id="Fill-2_00000137115137849441996330000017704089436717423805_" class="st2" d="M46,230.5c-1.7-3.1-3.5-6.2-5.2-9
				C42.3,224.6,44.1,227.7,46,230.5"/>
			<path id="Fill-3_00000065772036817056600090000002119233107491516058_" class="st3" d="M164.8,171.1c-10.3-9.2-17.4-14.9-27.6-17
				c-6.9-1.4-15.1,0.4-22.3,2c-5.5,1.2-10.2,2.3-13.9,1.9c-5.7-0.6-10.1-3.6-11.4-7.6c-0.9-2.8-0.7-7.4,5.6-12.9
				c2.6-2.3,5.7-4.2,9.2-5.8c-5,0-9.8-0.9-14.5-3.4c-6.1,8.4-21.5,14.5-26.2,12.4c-1.1-0.5-2.2-1.3-3.3-2.4
				c-0.1,0.1-0.2,0.2-0.3,0.2c1.3,1.2,2.2,2.8,2.6,4.7c0.8,3.9-0.6,8-3.6,11.1c-2.7,2.7-6.1,4.2-9.3,4.2c-2.2,0-4.2-0.8-5.6-2.1
				c-6.3,10.3-10,22.5-10,35.5c0,6.1,0.8,11.9,2.3,17.5c6.4,5.2,16.9,26.1,19.1,31.3c0.1,0.3,0.3,0.6,0.4,1.1
				c10.9,10.1,25.1,16.7,40.9,17.9c-0.2-2.6-0.1-5.4,0-8.1c0.1-3.4,0.2-6.8-0.2-9.7c-0.4-2.3-1-4.9-1.6-7.5
				c-2.4-9.9-5.1-21.2,4.4-27.5c1.8-1.2,3.8-1.8,5.9-1.8c8.5,0,16.3,10.3,20.3,18.1c5.5-8.8,14.4-14.4,25.1-15.5
				c5.4-0.5,10.8,0.2,15.2,1.8c1.6-5.7,2.4-11.6,2.4-17.6C168.2,184.9,167.1,177.9,164.8,171.1"/>
			<path id="Fill-6_00000039105555022817132120000006743532511398953870_" class="st3" d="M123.8,233.3c0-0.1,0-0.2-0.1-0.2
				c-0.2-0.7-0.4-1.5-0.6-2.3c-1.9-6.9-11-20.5-17.9-20.5c-1.1,0-2.1,0.3-3,1c-6.1,4-4.8,11.4-2.3,22c0.6,2.6,1.3,5.4,1.7,7.9
				c0.5,3.3,0.4,7,0.3,10.6c-0.2,5.6-0.4,11.3,2,13.8c1.1,1.1,2.7,1.6,5,1.6c0.7,0,1.3-0.1,1.9-0.1c0.2,0,0.4-0.1,0.5-0.1
				c0.4-0.1,0.8-0.2,1.2-0.3c0.2,0,0.4-0.1,0.5-0.1c0.4-0.1,0.8-0.3,1.2-0.4c0.1,0,0.2-0.1,0.3-0.1c0.5-0.2,1-0.5,1.4-0.7
				c0,0,0.1-0.1,0.1-0.1c0.4-0.2,0.8-0.5,1.1-0.8c0.1-0.1,0.2-0.2,0.3-0.2c0.3-0.2,0.6-0.5,0.8-0.7c0.1-0.1,0.2-0.2,0.3-0.3
				c0.3-0.3,0.6-0.6,0.8-0.9c0,0,0.1-0.1,0.1-0.1c0.3-0.4,0.5-0.7,0.8-1.1c0.1-0.1,0.1-0.2,0.2-0.3c0.2-0.3,0.3-0.5,0.5-0.8
				c0.1-0.1,0.1-0.3,0.2-0.4c0.1-0.2,0.2-0.4,0.3-0.7c0.1-0.1,0.1-0.3,0.2-0.4c0.1-0.2,0.2-0.4,0.2-0.6c0.2-0.4,0.3-0.8,0.4-1.1
				c0,0,0,0,0-0.1c0.1-0.2,0.2-0.5,0.2-0.7c0.3-0.9,0.4-1.6,0.4-1.7c0-0.1,0-0.2,0.1-0.3c1.9-6.1,2.7-11.2,1.1-18.7
				C124.2,234.7,124,234,123.8,233.3"/>
			<path id="Fill-7_00000153688105995678572540000005263628200745237438_" class="st4" d="M185.6,100c-7.7,0-18.6-0.1-25.5-0.6
				c-0.6,0-1.1,0-1.5,0c0.5,0.8,1.7,2.3,3.7,3.9l0.5,0.4c13.4,11.4,23.4,13.8,29.5,13.8h0c2.2,0,4.3-0.3,6.3-0.9
				c9.4-2.8,15.2-8.6,17.4-13.1c0.8-1.7,1-2.8,1-3.3c-1.3-0.1-4.6-0.2-9.9-0.2c-2.8,0-6,0-9.5,0C193.9,100,189.7,100,185.6,100"/>
			<path id="Fill-8_00000030468207218135558430000004527531900711383695_" class="st3" d="M18.9,212.5c-1.9,2.4-2.6,5.7-1.8,9.5
				c2,9.5,18.8,27.9,30.2,30.6c0.9,0.2,1.7,0.3,2.3,0.3c1.8,0,2.4-0.7,2.8-1.2c1.4-2.1,0.6-6.8-0.5-9.3c-3.2-7.2-13.2-26.1-18.2-30
				c-2.5-2-5.3-3-7.9-3C23,209.4,20.6,210.5,18.9,212.5"/>
			<path id="Fill-9_00000010299459509466738050000014717920692535076767_" class="st3" d="M45.4,151c0.6,3.1,2.7,3.8,4.3,3.8
				c2.2,0,4.6-1.2,6.5-3.1c2.2-2.2,3.1-5,2.6-7.6c-0.3-1.6-1.2-2.9-2.4-3.3c-0.2-0.1-0.4-0.1-0.8-0.1c-2.1,0-5.9,1.9-8.4,4.9
				C46.4,146.6,44.9,148.8,45.4,151"/>
			<path id="Fill-10_00000113332309368893790160000012168050121243608219_" class="st4" d="M163.7,253.3c-3.8,2.3-7.6,4.1-11.2,5.6
				c-11.9,21.7-37.7,38.4-60.1,38.8c-11.6,0.2-20.5-4.2-25.4-12.3c-5.5-9.2-13.8-12.6-19.2-11.2c-3.6,0.9-5.7,4-5.9,8.5
				c-0.1,4,3.4,9.4,9.5,14.3c10.9,8.9,29.6,16.1,46.8,12C127.9,302,154.6,279,163.7,253.3"/>
			<path id="Fill-11_00000098194176405196905600000003678926337553642662_" class="st4" d="M43.9,130.6c-0.2,0-0.2,0.1-0.2,0.1
				c0,0,0.1,0.2,0.6,0.5c0.8,0.5,4,2,12.6-0.3c-0.3-2-0.2-4.5,0.7-7.4C52.4,127,46.8,130,43.9,130.6"/>
			<path id="Fill-12_00000022543163934842502020000007848281061990733987_" class="st1" d="M49.7,158.7L49.7,158.7
				c-4.2,0-7.3-2.7-8.1-6.9c-0.5-2.8,0.5-5.9,2.8-8.7c3-3.6,7.8-6.3,11.3-6.3c0.8,0,1.5,0.1,2.2,0.4c2.4,0.9,4.1,3.2,4.7,6.1
				c0.8,3.9-0.6,8-3.6,11.1C56.3,157.1,52.9,158.7,49.7,158.7L49.7,158.7z M55.7,140.7c-2.1,0-5.9,1.9-8.4,4.9
				c-0.9,1.1-2.4,3.3-2,5.5c0.6,3.1,2.7,3.8,4.3,3.8c2.2,0,4.6-1.2,6.5-3.1c2.2-2.2,3.1-5,2.6-7.6c-0.3-1.6-1.2-2.9-2.4-3.3
				C56.3,140.7,56,140.7,55.7,140.7L55.7,140.7z"/>
			<path id="Fill-13_00000111170386174483756370000017023848357675489956_" class="st3" d="M183.7,133.6c-2.2-6.1-4.8-11.6-7.9-16.6
				c-4.6-2.2-9.8-5.5-15.5-10.4l-0.5-0.4c-6.3-5.3-5.4-7.7-5.2-8.4c0.2-0.6,0.6-1.1,1.2-1.5c-8.6-5.5-18.4-8.5-29.1-8.9
				c-26.7-0.8-50,10.5-62.5,30.3c-3.4,5.4-4.6,10.3-3.4,14.2c0.9,2.8,2.8,4.6,4.3,5.2c2.4,1.1,17.9-4.3,22.3-12.4
				c0.3-0.5,0.7-0.8,1.2-0.9c0.5-0.1,1.1-0.1,1.5,0.2c10.5,6.5,22.4,3.5,32.6,0.2c1-0.3,2.1,0.2,2.4,1.2c0.2,0.5,0.1,1.1-0.2,1.6
				c6.8-0.2,13.6,0.9,19.6,3.2c1,0.4,1.5,1.5,1.1,2.5c-0.4,1-1.5,1.5-2.5,1.1c-14.8-5.8-34.8-3-45.5,6.5c-3.7,3.2-5.3,6.4-4.5,8.8
				c0.8,2.5,4.1,4.5,8.1,4.9c3.1,0.3,7.7-0.7,12.7-1.8c7.6-1.7,16.2-3.6,23.9-2c12.4,2.6,20.7,10,33.2,21.3l1.5,1.4
				c0.8,0.7,0.8,1.9,0.1,2.7c-0.4,0.4-0.9,0.6-1.4,0.6c-0.4,0-0.9-0.2-1.2-0.5c1.2,5.2,1.9,10.6,1.9,16.1c0,6.5-0.9,13-2.7,19.2
				c2,1.1,3.6,2.5,4.8,4c0.7,0.8,0.5,2.1-0.3,2.7c-0.8,0.7-2.1,0.5-2.7-0.3c-3.3-4.3-11.8-6.8-20.2-6c-6.1,0.6-17.2,3.5-23.5,16
				c0.2,0.6,0.4,1.2,0.6,1.8c3.3,11.3,2.5,18.2,0,26.1c-0.2,1.3-0.7,2.9-1.4,4.6c8.5,0,23.4-1.8,39.3-12.8
				C196.2,226.6,193.5,161.3,183.7,133.6"/>
			<path id="Fill-14_00000082327705244278810350000013251004981859746234_" class="st1" d="M218.5,96.5c-0.9-0.2-3.1-0.4-11.3-0.4
				c-2.8,0-6,0-9.5,0c-3.9,0-8,0-12.2,0c-7.1,0-17-0.1-23.7-0.5c-10-7.5-21.8-11.7-34.9-12.1C99,82.8,74.5,94.7,61.2,115.5
				c-5.1,5-14.9,10.6-18.2,11.3c-1.5,0.3-2.7,1.4-3.1,2.7c-0.4,1.4,0,2.9,1.2,4.1c1,1.1,3.2,2.4,7.6,2.4c2.3,0,5.3-0.4,9.1-1.4
				c1.4,3.2,3.9,5.2,5.8,6.1c4.7,2.1,20.2-4,26.2-12.4c4.7,2.5,9.6,3.4,14.5,3.4c-3.4,1.6-6.6,3.5-9.2,5.8
				c-6.3,5.5-6.5,10.1-5.6,12.9c1.3,4,5.8,7,11.4,7.6c3.7,0.4,8.4-0.7,13.9-1.9c7.2-1.6,15.4-3.4,22.3-2c10.2,2.1,17.3,7.8,27.6,17
				c2.2,6.7,3.4,13.7,3.4,20.9c0,6-0.8,11.9-2.4,17.6c-4.4-1.6-9.8-2.3-15.2-1.8c-10.7,1.1-19.6,6.7-25.1,15.5
				c-4-7.8-11.8-18.1-20.3-18.1c-2.1,0-4.1,0.6-5.9,1.8c-9.5,6.3-6.8,17.6-4.4,27.5c0.6,2.7,1.2,5.2,1.6,7.5
				c0.4,2.8,0.3,6.3,0.2,9.7c-0.2,6.6-0.4,13.5,3.5,17.6c2,2.1,5,3.2,8.7,3.2c7.7,0,12.7-4,15.7-8.5c0.7,0,1.4,0,2.2,0
				c5,0,12-0.6,20-3.1c-12,18.7-34.7,32.6-54.5,33c-7.1,0.2-16.7-1.6-22-10.5c-6.4-10.8-16.7-14.7-23.5-12.9
				c-5.4,1.4-8.5,5.8-8.8,12.1C38,287.9,41.9,294.2,49,300c9.3,7.6,24,14,39,14c3.7,0,7.5-0.4,11.1-1.3c32.7-7.7,61.8-34,69.7-62.7
				c17.7-12.6,23.3-37.7,24.9-56.6c2-24.1-1.7-48.1-6.3-61.1c-1.6-4.6-3.5-8.9-5.7-12.9c4.3,1.4,7.9,1.9,10.7,1.9h0
				c2.6,0,5-0.4,7.4-1.1c15-4.5,21.3-15.6,21.2-20.3C220.9,98.2,220,96.9,218.5,96.5L218.5,96.5z M56.8,130.9
				c-8.6,2.3-11.8,0.8-12.6,0.3c-0.4-0.3-0.5-0.5-0.6-0.5c0,0,0.1-0.1,0.2-0.1c2.9-0.6,8.6-3.6,13.6-7.1
				C56.6,126.4,56.5,128.9,56.8,130.9L56.8,130.9z M123.2,254.1c0,0.1-0.1,0.2-0.1,0.3c-0.1,0.5-2.4,12.8-14.2,12.8
				c-2.3,0-4-0.5-5-1.6c-2.4-2.5-2.2-8.2-2-13.8c0.1-3.6,0.2-7.3-0.3-10.6c-0.4-2.6-1-5.3-1.7-7.9c-2.6-10.7-3.8-18,2.3-22
				c1-0.7,2-1,3-1c6.9,0,16,13.6,17.9,20.5C126.1,241,125.5,246.9,123.2,254.1L123.2,254.1z M98.2,309c-17.2,4.1-35.9-3.1-46.8-12
				c-6.1-4.9-9.6-10.3-9.5-14.3c0.1-4.6,2.2-7.6,5.9-8.5c5.4-1.4,13.8,2,19.2,11.2c4.9,8.2,13.8,12.5,25.4,12.3
				c22.4-0.4,48.2-17.1,60.1-38.8c3.6-1.4,7.4-3.3,11.2-5.6C154.6,279,127.9,302,98.2,309L98.2,309z M183.7,133.6
				c9.8,27.7,12.5,92.9-17.7,113.7c-15.9,11-30.9,12.8-39.3,12.8c0.7-1.7,1.2-3.3,1.4-4.6c2.5-7.9,3.3-14.8,0-26.1
				c-0.1-0.5-0.3-1.1-0.6-1.8c6.3-12.5,17.4-15.4,23.5-16c8.4-0.8,16.8,1.7,20.2,6c0.6,0.8,1.9,1,2.7,0.3c0.8-0.6,1-1.9,0.3-2.7
				c-1.2-1.5-2.9-2.9-4.8-4c1.8-6.2,2.7-12.7,2.7-19.2c0-5.4-0.6-10.8-1.9-16.1c0.4,0.3,0.8,0.5,1.2,0.5c0.5,0,1-0.2,1.4-0.6
				c0.7-0.8,0.7-2-0.1-2.7l-1.5-1.4c-12.5-11.3-20.7-18.7-33.2-21.3c-7.7-1.6-16.3,0.3-23.9,2c-4.9,1.1-9.6,2.1-12.7,1.8
				c-4.1-0.4-7.3-2.4-8.1-4.9c-0.8-2.4,0.8-5.6,4.5-8.8c10.8-9.5,30.8-12.3,45.5-6.5c1,0.4,2.1-0.1,2.5-1.1c0.4-1-0.1-2.1-1.1-2.5
				c-6-2.4-12.8-3.4-19.6-3.2c0.3-0.5,0.4-1,0.2-1.6c-0.3-1-1.4-1.6-2.4-1.2c-10.3,3.3-22.1,6.2-32.6-0.2c-0.4-0.3-1-0.4-1.5-0.2
				c-0.5,0.1-0.9,0.5-1.2,0.9c-4.5,8.2-19.9,13.5-22.3,12.4c-1.4-0.6-3.4-2.4-4.3-5.2c-1.2-3.9,0-8.8,3.4-14.2
				c12.5-19.8,35.8-31.1,62.5-30.3c10.7,0.3,20.5,3.4,29.1,8.9c-0.6,0.4-1,0.9-1.2,1.5c-0.3,0.8-1.2,3.2,5.2,8.4l0.5,0.4
				c5.7,4.9,10.9,8.2,15.5,10.4C178.9,122,181.5,127.6,183.7,133.6L183.7,133.6z M216.1,103.5c-2.3,4.5-8,10.3-17.4,13.1
				c-2,0.6-4.1,0.9-6.3,0.9h0c-6.1,0-16.2-2.4-29.5-13.8l-0.5-0.4c-2-1.6-3.2-3.1-3.7-3.9c0.3,0,0.9,0,1.5,0
				c6.8,0.6,17.8,0.6,25.5,0.6c4.1,0,8.3,0,12.2,0c3.4,0,6.6,0,9.5,0c5.3,0,8.6,0.1,9.9,0.2C217.1,100.7,216.9,101.8,216.1,103.5
				L216.1,103.5z"/>
			<path id="Fill-15_00000139281313562656983220000014667739692489810360_" class="st1" d="M85.8,114.6c-3.1,2.3-2.1,5.1,1.3,5.6
				c3.4,0.4,3.7,0.7,6.8-1.7c3.4-2.6,3.9-6.8,0-6.4C90.1,112.5,87.5,113.3,85.8,114.6"/>
			<path id="Fill-16_00000128446152052513862790000015693741577791606947_" class="st1" d="M76.8,116.3c0,2.1-1.7,3.8-3.9,3.8
				c-2.1,0-3.9-1.7-3.9-3.8c0-2.1,1.7-3.8,3.9-3.8C75.1,112.5,76.8,114.2,76.8,116.3"/>
			<path id="Fill-17_00000111902154637095181210000014728686722584246952_" class="st1" d="M121.3,105.6c0,2.1-1.7,3.8-3.9,3.8
				c-2.1,0-3.9-1.7-3.9-3.8c0-2.1,1.7-3.8,3.9-3.8C119.6,101.8,121.3,103.5,121.3,105.6"/>
			<path id="Fill-18_00000071554671410856958480000008310608400522902189_" class="st1" d="M49.7,256.7L49.7,256.7
				c-1,0-2.1-0.1-3.2-0.4c-13-3.1-30.8-22.7-33.1-33.6c-1-4.9-0.1-9.4,2.6-12.7c2.4-2.9,6-4.6,9.9-4.6c3.5,0,7.1,1.3,10.3,3.8
				c6.3,4.9,17.1,26.2,19.4,31.5c1,2.2,2.9,8.8,0.2,12.9C54.8,255.1,53.1,256.7,49.7,256.7L49.7,256.7z M25.8,209.4
				c-2.8,0-5.2,1.1-6.9,3.2c-1.9,2.4-2.6,5.7-1.8,9.5c2,9.5,18.8,27.9,30.2,30.6c0.9,0.2,1.7,0.3,2.3,0.3c1.8,0,2.4-0.7,2.8-1.2
				c1.4-2.1,0.6-6.8-0.5-9.3c-3.2-7.2-13.2-26.1-18.2-30C31.2,210.4,28.4,209.4,25.8,209.4L25.8,209.4z"/>
		</g>
	</g>
	<g>
		<path id="volante_00000093876418020904764860000006346294126364792710_" class="st0" d="M26.3,188.1c0,0,0.8,9.1-4.2,13.1
			s-8.9,1.3-13.5,1.8s-6.3,6.4-6.1,8.8c0.2,2.3,3.2,4.8,11.6,0.8c8.3-4,7.6-6,12.7-5.6c12.5,1,22.4,21.1,28.4,21.1s4.9-2.7,8-2.5
			c3.2,0.2,7.2,14.6,15.4,14.7c7.1,0.1,11.4-7.5,13.1-7.3c5,0.4,11.6,12.9,19.2,13.1c7.6,0.3,12.9-4.5,14.9-4.5
			c2,0,9.5,12.1,14.1,12.4c5.7,0.4,5.9-7,10.4-6.9c4.9,0.1,11.6,12.7,16.2,12.6c7.1-0.1,5.4-9,11.3-8.8c3.8,0.1,10.4,9.5,14.4,9.3
			c4-0.2,13.3-5.7,13.7-10.4c0.3-3.3-4.4-8.2-7.5-9c-0.1,0-3.3-9.3-14-14.2C142,207.5,26.3,188.1,26.3,188.1z"/>
		<path d="M192.1,262.8c-3,0-5.9-2.6-9.1-5.4c-1.6-1.4-4.3-3.8-5.3-3.9c-1.1-0.1-1.5,0.4-2.7,2.7c-1.3,2.4-3.3,6-8.5,6.1
			c0,0,0,0,0,0c-3.4,0-6.4-3.4-9.7-7c-2-2.2-5.1-5.6-6.5-5.7c-0.7,0-1.2,0.5-2.5,2.2c-1.5,2-3.7,5-8.1,4.7
			c-3.5-0.2-6.8-3.8-11.2-8.9c-1-1.2-2.3-2.7-3.1-3.4c-0.4,0.2-1.1,0.5-1.6,0.8c-2.9,1.5-7.4,3.8-13.1,3.6
			c-5.2-0.2-9.5-4.5-13.4-8.4c-1.9-1.9-4.1-4.1-5.5-4.7c-0.3,0.3-0.8,0.8-1.2,1.1c-2.4,2.3-6.4,6.1-12.1,6.1c0,0-0.1,0-0.1,0
			c-6.5-0.1-10.4-6.4-13.3-11c-0.8-1.3-1.9-3.1-2.5-3.7c0,0,0,0,0,0c-0.1,0-0.3,0.2-0.4,0.3c-1.4,1.1-3,2.1-7,2.1
			c-3.7,0-7.1-3.8-11.4-8.5c-4.9-5.4-10.9-12.1-17.2-12.6c-2.2-0.2-2.6,0.1-4.6,1.4c-1.4,1-3.4,2.3-6.8,3.9
			c-5.4,2.6-9.5,3.1-12.4,1.5c-1.6-0.9-2.6-2.5-2.8-4.3c-0.3-3.8,2.2-10.8,8.3-11.5c1.8-0.2,3.4,0,4.9,0.2c2.7,0.4,4.7,0.6,7.3-1.4
			c3.9-3.1,3.3-10.9,3.3-11c-0.1-0.8,0.2-1.5,0.8-2.1c0.6-0.5,1.3-0.8,2.1-0.6c4.7,0.8,116.5,19.7,158.8,38.9
			c6.5,3,11.8,8.1,14.8,14.5c3.8,1.7,8.5,6.9,8.1,11.2c-0.6,6.3-11.3,12.4-16.1,12.6C192.2,262.8,192.1,262.8,192.1,262.8z
			 M177.6,248.5c0.1,0,0.2,0,0.3,0c2.7,0.1,5.4,2.4,8.4,5.1c1.6,1.4,4.7,4.1,5.7,4.1c0,0,0,0,0,0c3.1-0.1,11-5.1,11.3-8.1
			c0.2-1.7-3.4-5.8-5.6-6.3c-1.2-0.3-1.6-1.2-1.8-1.7c-1.4-3.2-5-9.2-12.6-12.7C145.5,211.8,47,194.2,28.8,191
			c-0.2,3.5-1.2,8.9-5.2,12.1c-4.2,3.4-8,2.9-11,2.5c-1.3-0.2-2.5-0.3-3.7-0.2c-2.8,0.3-4,4.7-3.8,6.2c0,0.1,0,0.2,0.3,0.3
			c0.9,0.5,3.5,0.4,7.7-1.6c3.1-1.5,4.9-2.7,6.2-3.6c2.5-1.7,4-2.5,7.8-2.2c8.2,0.7,15,8.2,20.5,14.2c2.6,2.9,6.3,6.9,7.7,6.9
			c2.6,0,3.3-0.5,3.9-1c0.8-0.6,1.9-1.6,4.2-1.4c2.5,0.2,4,2.6,6.2,6c2.4,3.9,5.4,8.7,9.1,8.7c0,0,0,0,0.1,0c3.7,0,6.5-2.7,8.6-4.7
			c1.6-1.5,2.9-2.7,4.6-2.6c3.1,0.2,5.9,3,9.1,6.2c3.2,3.2,6.7,6.8,10,6.9c4.4,0.2,8-1.7,10.6-3c1.7-0.9,2.9-1.5,4.2-1.5
			c2,0,3.5,1.8,6.5,5.3c2,2.3,6.1,7,7.7,7.2c1.5,0.1,2.2-0.7,3.7-2.7c1.3-1.8,3.2-4.3,6.6-4.2c3.6,0.1,6.7,3.6,10.1,7.3
			c1.7,1.9,4.8,5.3,6,5.3c2.2,0,2.8-1.1,4.1-3.5C171.7,251.7,173.4,248.5,177.6,248.5z"/>
	</g>
	<g>
		<path id="traje_00000047765184581396307550000018244441421683122879_" class="st0" d="M62,148.7c0,0,10.4,14.7,30.5,15.3
			s38.8-14.2,38.8-14.2l17.8-4.9l46.6,23.5c0,0,1.5,15,0,28c-1.6,13.4-2.1,18.3-2.1,20.8c0,4.4,10.8,9.7,11,14.8
			c0.2,5.1-11.8,12.7-13.6,12.5c-4.9-0.4-4.2-13.5-11.6-13.5s-4.5,4.9-9.7,5.1c-5.1,0.2-12.7-13.1-17.1-12.9c-4.4,0.2-6,8.1-10.8,8
			c-5.9-0.2-13.5-15.9-18.6-16.7c-5.1-0.8-7.6,3.6-12.7,3.8c-12.3,0.4-17-9.5-20.3-9.5c-3.4,0-3.6,7-12.9,7.4
			c-9.3,0.4-13.3-14.8-15.2-15c-1.9-0.2-5.9,6.8-11.9,6.6s-15.9-15-19.1-15.7c-3.2-0.8-12.1,6.8-17.1,1.9s0-10.4,3.6-11.4
			c3.6-0.9,9.1,2.7,12.7-0.9c3.6-3.6,2.5-14.2,8.5-19.9C45.2,156.2,62,148.7,62,148.7z"/>
		<path d="M191,247.1c-0.1,0-0.1,0-0.2,0c-3.8-0.3-5.2-4-6.6-7.4c-1.5-3.8-2.6-6.1-4.8-6.1c-2.7,0-3.1,0.6-3.8,1.7
			c-0.9,1.3-2.1,3.3-5.7,3.4c-0.1,0-0.1,0-0.2,0c-3.7,0-7.2-3.7-10.9-7.6c-1.8-1.9-4.9-5.2-6-5.3c-0.9,0-2.1,1.5-3.2,2.9
			c-1.8,2.2-3.9,5-7.5,5c-0.1,0-0.2,0-0.2,0c-4.3-0.1-8-4.8-12-9.8c-2.1-2.7-5.4-6.7-6.8-6.9c-1.8-0.3-3.1,0.4-5.2,1.5
			c-1.9,1-4.1,2.2-7.1,2.3c-9.2,0.3-14.7-4.6-18-7.5c-0.8-0.7-1.9-1.6-2.4-1.9c-0.2,0.2-0.8,0.8-1.2,1.4c-1.9,2.3-4.7,5.7-11.5,6
			c-8.1,0.3-12.4-7.9-15.1-12.8c-0.2-0.5-0.5-1-0.8-1.4c-0.2,0.2-0.5,0.4-0.7,0.6c-2.4,2.2-5.9,5.4-10.8,5.3
			c-4.7-0.1-10-5.8-14.6-10.8c-1.8-1.9-4.2-4.5-5.1-5c-0.6,0-2.4,0.8-3.6,1.3c-4.1,1.7-10.3,4.3-14.7-0.1c-2.4-2.4-3.3-5.4-2.5-8.4
			c1-3.7,4.4-6.5,7.3-7.2c1.9-0.5,3.9-0.1,5.8,0.2c2.8,0.5,4.5,0.7,5.8-0.5c1.1-1.1,1.7-3.7,2.3-6.4c1-4.3,2.3-9.8,6.3-13.5
			c6.4-6,22.9-13.4,23.6-13.7c1.1-0.5,2.4-0.1,3.1,0.8c0.1,0.2,10,13.7,28.5,14.2c19,0.6,37-13.5,37.2-13.6c0.3-0.2,0.6-0.4,0.9-0.4
			l17.8-4.9c0.6-0.2,1.2-0.1,1.8,0.2l46.6,23.5c0.8,0.4,1.3,1.1,1.4,2c0.1,0.6,1.5,15.4,0,28.6c-1.6,13.4-2.1,18.2-2.1,20.6
			c0,1,2.7,3.5,4.4,5c3.2,2.9,6.5,6,6.6,9.7c0.1,2.4-1.4,5.2-4.4,8.1C199.6,243.1,193.8,247.1,191,247.1z M190.9,242.1L190.9,242.1
			L190.9,242.1z M179.5,228.7c5.8,0,7.9,5.3,9.5,9.2c0.5,1.3,1.5,3.8,2.2,4.2c2.6-0.8,11.2-7,11.1-9.9c-0.1-1.6-2.9-4.2-5-6.2
			c-3.1-2.8-6-5.5-6-8.7c0-2.6,0.5-7.3,2.1-21.1c1.2-10.4,0.4-22.2,0.1-26.1l-44.5-22.4l-16.4,4.5c-3,2.2-20.8,14.9-40,14.4
			c-17.2-0.5-27.7-10.6-31.2-14.7c-4.4,2.1-15.8,7.6-20.5,12c-2.9,2.7-3.9,6.9-4.8,11c-0.8,3.5-1.6,6.8-3.6,8.8
			c-3.2,3.2-7.2,2.4-10.2,1.9c-1.4-0.2-2.8-0.5-3.6-0.3c-1.4,0.4-3.2,1.9-3.7,3.7c-0.3,1.2,0.1,2.4,1.2,3.5c1.8,1.8,5.1,0.7,9.2-1
			c2.7-1.1,4.7-2,6.7-1.5c1.9,0.5,3.9,2.5,7.5,6.4c3.2,3.4,8.5,9.1,11.1,9.2c2.9,0.1,5.3-2.2,7.2-4c1.7-1.6,3.1-2.8,4.9-2.6
			c1.9,0.2,2.8,1.8,4.3,4.8c2.2,4.1,5.5,10.4,10.5,10.2c4.6-0.2,6.3-2.2,7.9-4.2c1.2-1.4,2.6-3.2,5.1-3.2c2,0,3.6,1.4,5.6,3.2
			c3.1,2.7,7.4,6.5,14.6,6.3c1.8-0.1,3.2-0.8,4.8-1.7c2.2-1.2,4.8-2.6,8.3-2.1c3.4,0.5,6.4,4.3,10,8.7c2.5,3.1,6.3,7.9,8.3,7.9
			c0,0,0,0,0,0c1.1,0,2.2-1.2,3.6-3.1c1.6-2.1,3.7-4.7,6.9-4.8c0.1,0,0.1,0,0.2,0c3.2,0,6.2,3.2,9.6,6.9c2.1,2.3,5.7,6,7.2,6
			c0,0,0,0,0,0c1,0,1.1-0.2,1.7-1.1C172.8,230.6,174.5,228.7,179.5,228.7z M90.3,211.5L90.3,211.5L90.3,211.5z"/>
	</g>
	<g>
		<path id="manga_00000128476300877487869430000011670012000450148739_" class="st0" d="M174.2,130.4c-8.7-0.1-26.9,3-26.9,3
			s-7.2-8.6-11.7-8.9c-6.7-0.4-8,19.5-8.4,37c-0.5,17.4-0.1,19.8,0.9,19.8c0.9,0,17.4-25.5,17.4-25.5s12.1,4.9,19.6,22.1
			c5.6,12.8,6,22.5,6,22.5s9.1,0.6,12.9,2.3c5.3,2.3,10.4,6.1,10.4,6.1s3-18.7,1.9-35.8c-0.9-13.4-4.7-37.5-7-39
			S182.4,130.4,174.2,130.4z"/>
		<path d="M194.3,210c-0.3,0-0.5-0.1-0.8-0.2c0,0-5-3.7-10.1-5.9c-3.6-1.5-12.5-2.2-12.5-2.2c-0.6,0-1.1-0.6-1.2-1.2
			c0-0.1-0.4-9.7-5.9-22.1c-6-13.7-15.1-19.4-18-21c-16.3,25.1-17.1,25.1-17.9,25.1c-0.5,0-0.9-0.2-1.2-0.5
			c-0.9-0.9-1.4-2.3-0.9-20.6c0.4-16.6,1.5-32.6,6.3-37c1-0.9,2.2-1.4,3.4-1.3c4.4,0.3,10.4,6.7,12.2,8.8c3.5-0.6,18.6-3,26.4-2.9
			l0,0c8.3,0.1,13.1,2.1,15.6,3.8c3.3,2.2,7,30.9,7.6,40c1.1,17.1-1.9,35.9-1.9,36.1c-0.1,0.4-0.4,0.8-0.8,1
			C194.6,210,194.4,210,194.3,210z M172.1,199.3c2.6,0.2,9.1,0.9,12.3,2.3c3.6,1.5,7,3.7,8.9,5c0.7-5.3,2.5-20,1.6-33.5
			c-0.9-14.1-4.7-36.2-6.5-38.1c-2.2-1.4-6.5-3.3-14.2-3.3c-8.5-0.1-26.5,3-26.7,3c-0.4,0.1-0.9-0.1-1.2-0.4
			c-1.9-2.3-7.6-8.3-10.9-8.5c-0.6,0-1.1,0.2-1.6,0.6c-4.7,4.3-5.3,25.9-5.5,35.2c-0.1,4.4-0.4,13.8,0,17.5c3-4,11-16.1,16-23.9
			c0.3-0.5,1-0.7,1.5-0.5c0.5,0.2,12.7,5.3,20.3,22.7C170.7,187.9,171.9,196.4,172.1,199.3z"/>
	</g>
	<g id="pendiente_00000002376934310121814320000012123197561417085316_">
		<path d="M208.3,121.5c-13.6,0-24.6,10.1-24.6,22.6c0,12.5,11,22.6,24.6,22.6s24.6-10.1,24.6-22.6
			C232.9,131.6,221.9,121.5,208.3,121.5z M208.1,148.5c-6,0-10.9-4.5-10.9-10c0-5.5,4.9-10,10.9-10c6,0,10.9,4.5,10.9,10
			C219,144,214.1,148.5,208.1,148.5z"/>
		<path class="st5" d="M208.5,123.2c-12.5,0-22.6,9.3-22.6,20.8c0,11.5,10.1,20.8,22.6,20.8c12.5,0,22.6-9.3,22.6-20.8
			C231.1,132.5,221,123.2,208.5,123.2z M208,150.6c-6.9,0-12.5-6.1-12.5-12.4c0-6.3,5.6-11.4,12.5-11.4c6.9,0,12.5,5.1,12.5,11.4
			C220.5,144.5,214.9,150.6,208,150.6z"/>
		<ellipse cx="208" cy="114.2" rx="9.7" ry="9.5"/>
		<ellipse class="st5" cx="208" cy="114.2" rx="7.8" ry="8"/>
	</g>
	<g id="clavel_00000168090375722988853180000010405198944731419068_">
		<path d="M130.6,97.8c2.4,0.3,3.4,2.8,5.1,2.5c1.4-0.2,1.9-1.1,3-1.1c1.4,0,1.7,2.4,2.8,2.3c0.9-0.1,1.1-1.1,2-1.1
			c1.1-0.1,1.2,0.8,2.5,0.8c1.5,0,0.4-1.8,1.5-2.3c0.7-0.3,0.9,0.5,2.8,0c1.8-0.5,2.4-0.7,3.2-3.2c0.5-1.7,2.5-1.3,3.6-3
			c0.5-0.7,2-2.2,2.3-2.5c1.8-1.3,1.5-1.6,2.8-2.6c0.8-0.7,2.1-1.7,1.8-2.8c-0.4-1.6-3.5-3-3.6-4.3c0-0.7,0.6-0.9,1.6-3
			c0.7-1.4,0.6-1.8,0.5-1.9c-0.4-0.8-0.6-0.1-1.6-0.9c-1.1-1,0.6-3.6-0.4-4.7c-1-1.1-3.7,0.4-5.3-0.8c-1.4-1-0.3-1.5-2.1-2.8
			c-0.9-0.6-1.8-1-2.3-1.7c-0.9-1.3-1.5-2.5-2.3-2.7c-2.9-0.7-1.7,1.4-3.7,0.8c-1.5-0.4-1.2-2.1-3.4-3.5c-0.3-0.2-2.1-1.4-4.4-1.3
			c-1.9,0.1-2.4,0.8-4.2,0.9c-2.3,0.2-2.3-0.9-4.4-0.8c-2.1,0.1-2,1-6.6,3.1c-1.6,0.7-2.4,1.3-3,2.3c-0.6,1-0.3,2-1.1,2.5
			c-0.8,0.5-0.5,0.4-1.3,0.5c-2.1,0.2-3.1,1.7-3.4,3.7c-0.2,1.7-2.2,1.6-3,2.3c-0.9,0.8,0.1,2.5-0.9,3.4c-0.7,0.6-0.6,1.6-1.6,2.3
			c-1,0.7-1.9,0.7-2,1.4c0,1.6,0.6,1.8,0.5,3.4c-0.1,1.1-0.4,1.1-0.5,2.4c-0.1,0.6-0.4,2.5,0.7,3.1c0.8,0.5,2.4,1,3.2,1.3
			c1,0.3,0.8,0.4,1,2.3c0.1,0.8,0.3,1.2,0.8,1.5c0.4,0.3,2.7,0,3,1.1c0.3,1.2-0.4,2.6,0.9,2.6c1.7,0,1.5-1.2,2.5-0.9
			c0.8,0.3,0.9,0.1,1.8,0.4c1.1,0.4,2.3,0.3,3.7,0.5c1.5,0.3,1.6,1.3,3.3,1.5C128.9,99.5,128.5,97.6,130.6,97.8z"/>
		<path class="st5" d="M123.3,64.1c0.8,0,1.6,1.9,5.2,5.1c1,0.9,1.5,1.8,1.3,2.5c-0.3,1-1.8,0.8-2.5,2c-0.7,1.3,0.7,2.5-0.1,3.7
			c-0.4,0.6-1.2,1.1-2,0.9c-1.4-0.3-1.4-2.7-2.7-2.9c-1.2-0.2-1.7,1.8-3.3,1.9c-1.9,0.1-2.5-2.7-4.7-2.8c-1.6,0-2.4,1.3-3,0.9
			c-0.5-0.4-0.4-2,0.4-2.7c0.7-0.6,1.4-0.1,2.1-0.6c1-0.8,0.1-2.4,0.9-3.4c1.2-1.4,3.7-0.1,4.4-1.3c0.5-0.8-0.4-1.1,0.2-2.3
			C120,64.4,122.4,64.1,123.3,64.1z"/>
		<path class="st5" d="M130.3,68.5c0.8-0.3,0.3-1.6,1.3-2.5c1-0.9,2.2-0.3,2.5-0.9c0.2-0.5-0.5-1.5-1.3-1.6c-0.8-0.1-1,0.7-2.3,1
			c-1.1,0.3-1.4-0.1-1.9,0.3c-0.6,0.5-0.6,1.7-0.2,2.5C128.8,68,129.7,68.7,130.3,68.5z"/>
		<path class="st5" d="M130,62.8c-0.3,0.3-0.9-0.3-1.9-0.1c-0.9,0.2-1,1-1.6,0.9c-0.5,0-0.5-0.5-1.3-0.9c-1-0.5-1.8-0.2-1.9-0.5
			c-0.1-0.2,0.4-0.5,2-1.4c2.3-1.3,2.8-1.5,3.2-1.3c0.4,0.2,0.7,0.6,1.1,1.5C129.9,61.6,130.3,62.5,130,62.8z"/>
		<path class="st5" d="M133.6,61.4c-0.1,0.9,0.3,1.9,0.9,2.1c0.3,0.1,0.4-0.1,2-0.8c0.7-0.3,0.9-0.4,1.4-0.6
			c0.6-0.4,0.6-0.5,0.9-0.6c0.9-0.3,1.6,0.6,2.1,0.3c0.4-0.3,0.4-1.3-0.1-1.7c-0.5-0.5-1.2,0.2-2.6,0.1c-1.6-0.1-1.8-0.9-2.8-0.6
			C134.5,59.7,133.8,60.4,133.6,61.4z"/>
		<path class="st5" d="M139.6,66c1.5-0.5,2-1.6,2.6-1.3c0.9,0.3,0.4,2.7,1.5,3.1c0.3,0.1,0.6,0,0.8-0.1c0.7-0.5,0.4-2.2-0.1-3.2
			c-0.2-0.5-0.8-1.7-1.7-1.8c-0.8-0.1-1,0.7-2.3,0.9c-1.2,0.2-1.7-0.4-2.3,0c-0.4,0.3-0.2,0.6-0.7,1.1c-0.7,0.8-1.6,0.8-1.6,1
			C135.9,66,137.8,66.6,139.6,66z"/>
		<path class="st5" d="M146.3,68.5c-0.9-0.4-0.4-3.2,0-4.4c0.3-1.1,0.6-1.3,0.9-1.5c0.7-0.3,1.5,0.3,2,0.8c0.1,0.1,0.8,0.9,0.5,1.5
			c-0.3,0.5-1.1,0.1-1.5,0.6c-0.5,0.6,0.3,1.4-0.2,2.2C147.6,68.3,146.7,68.7,146.3,68.5z"/>
		<path class="st5" d="M149.4,66.2c0.3-0.4,0.8-0.8,1.3-0.7c0.5,0.1,0.5,0.5,1.3,1.3c0.6,0.5,0.8,0.4,1.1,0.8c0.6,0.8,0.3,1.8,0.3,2
			c-0.3,1.1-1.2,1.7-1.5,1.8c-0.8,0.4-1.9,0.6-2.1,0.2c-0.3-0.5,1.4-1.7,1.1-2.5c-0.2-0.4-0.7-0.2-1.2-0.8
			C149.1,67.8,148.9,66.9,149.4,66.2z"/>
		<path class="st5" d="M155.2,70.5c-0.7,0.1-1.4,1.4-1.1,2.4c0,0.2,0.2,0.5,1.8,1.6c1.4,1,1.6,0.9,1.8,1.3c0.7,1.3-1.2,3-0.6,3.7
			c0.4,0.4,1.4,0.2,1.9-0.1c1.1-0.5,1.9-1.7,1.6-2.7c-0.2-0.7-0.7-0.6-1.2-1.6c-0.4-0.7-0.4-1.4-0.5-2.6c-0.1-1.4,0.1-1.8-0.3-2
			c-0.5-0.3-1,0.6-2.1,0.4C155.9,70.9,155.7,70.4,155.2,70.5z"/>
		<path class="st5" d="M158.6,81.7c1.1-0.3,2.4,1,2.9,1.5c0.6,0.6,1.1,1.2,1,1.8c-0.1,0.8-1.2,1.2-2.1,1.6c-1.6,0.7-2.2,0.4-2.7,1
			c-0.5,0.8,0.1,1.5-0.4,2.2c-0.6,0.6-1.4,0.1-2,0.8c-0.6,0.6-0.1,1.2-0.6,1.9c-0.6,0.9-1.7,0.5-2.5,1.5c-0.5,0.7-0.1,1-0.6,1.9
			c-0.7,1.3-1.5,1.9-2.5,1.4c-0.8-0.4-0.7-0.6-2-0.4c-0.6,0.1-0.9,1.9-1.8,2c-0.7,0.1-1.1-1.3-2-1.3c-1,0.1-1.2,1.8-2,1.8
			c-1,0-1.3-2.7-2.5-2.8c-1-0.1-1.4,1.6-2.9,1.9c-1.4,0.3-2.2-1.5-3.9-2.4c-1.4-0.8,0.4-2.5,1.5-2.7c1.1-0.2,1.9,0.1,3.5,0.1
			c1.5,0,1.9-1.2,3.3-1.1c1.4,0.1,1.8,1.3,2.5,1c0.9-0.3,0.3-2.2,1.3-2.8c0.9-0.5,1.6,0.6,2.8,0.1s1-1.7,2.2-2.1
			c1.2-0.4,2,0.6,2.7,0.1c0.7-0.5,0.1-1.8,0.9-2.4c0.6-0.5,1.2,0.1,2.2-0.3c0.3-0.1,0.6-0.3,1.9-2.1
			C158.1,82.1,158.1,81.8,158.6,81.7z"/>
		<path class="st5" d="M128.3,97c1-1.2,0.5-3.2-0.5-3.9c-0.9-0.6-1.8,0.3-3-0.3c-1-0.5-0.8-1.3-1.6-1.6c-1.2-0.4-2.1,1.1-3,0.7
			c-0.9-0.4-0.8-1.9-1.4-2c-0.6-0.1-0.7,1.2-1.7,1.7c-1.6,0.8-3.6-1.2-4.5-0.4c-0.4,0.4-0.4,1.2-0.1,1.6c0.7,0.7,2.4-0.4,3.1,0.3
			c0.6,0.6-0.3,2,0.3,2.3c0.6,0.4,1.7-1.1,3-0.7c0.8,0.2,0.8,1,1.6,1.1c1.1,0.2,2-1.2,2.6-0.9c0.4,0.2,0.1,0.8,0.6,1.6
			c0.6,1,1.7,1.2,1.8,1.3C126.3,98,127.5,97.9,128.3,97z"/>
		<path class="st5" d="M115.7,89c0.3-1.2-3.6-2.3-3.3-4.1c0.1-1.2,2-1.5,2.1-3c0-0.6-0.2-1.1-0.8-2.1c-0.8-1.3,1-2.6-1.4-2.5
			c-1.4,0-3.4,0.9-4,1.8c-0.3,0.5-1.3,0.8-1.3,0.9c-0.3,0.7,0.3,1.4,0.3,1.6c0.1,1,1.6,1,2.3,2.4c0.2,0.5,0.5,1.4,0.1,1.9
			c-0.7,0.9-2.7-0.2-3.1,0.4c-0.3,0.5,0.5,1.7,1.6,2.1c0.8,0.3,1.4-0.1,2.3,0.4c0.5,0.3,0.6,0.5,1,0.8C112.6,90.7,115.5,90,115.7,89
			z"/>
		<path class="st5" d="M116.5,78.4c0.7-0.5,1.8,1.7,3.2,1.7c1.3,0,1.6-1.5,2.7-1.4c1.1,0.1,1.2,1.7,2.3,2c1.7,0.4,3.2-2.4,4.3-2
			c0.8,0.4,0.2,2.2,1.2,2.9c1,0.6,2.4-0.6,3.2,0.1c0.6,0.6,0.1,1.7,0.8,2.2c0.6,0.5,1.4-0.2,2,0.3c0.6,0.5,0.5,1.8,0.3,2.7
			c-0.6,2-2.1,1.8-3.5,4c-1,1.7-0.7,1.7-1.6,1.8c-0.6,0.1-1.4,0.2-1.8-0.4c-0.7-1.1,0.2-1.4-0.7-1.8c-1.4-0.6-0.8,0-3.1,0
			c-3.2,0-1.9-1.6-4-1.1c-1.3,0.3-1-1.7-2.1-2c-1.1-0.3-1.8,0.6-2.5,0.1c-0.3-0.2-0.3-0.4-0.8-2.1c-0.5-1.6-0.6-1.8-0.5-2.1
			c0.3-1,1.4-0.8,1.8-1.8C118,80.4,114.6,79.7,116.5,78.4z"/>
		<path class="st5" d="M129.1,75c0.1,0.6,1.3,0.3,2,1.1c1,1.1-0.2,2.9,0.7,3.5c0.4,0.3,1.2,0.2,1.6-0.2c0.6-0.6,0.1-1.6,0.5-1.8
			c0.3-0.2,0.9,0.1,1.2,0.5c0.9,1.1-0.5,2.9,0.4,4.1c0.3,0.4,0.8,0.7,1.3,0.6c1.2-0.3,1.8-4,0.4-5.2c-0.6-0.5-1.3-0.3-1.5-0.9
			c-0.3-0.7,0.7-1.3,0.4-2.1c-0.2-0.6-1-0.9-2-1.1c-1.1-0.3-2.9-0.8-4.2,0.1C129.9,73.8,129,74.5,129.1,75z"/>
		<path class="st5" d="M136.8,73.4c0.1,0.1,1.4,1,2.3,0.5c0.6-0.4,0.3-1.1,1.2-2.2c0.4-0.5,0.6-0.4,1.1-1.1c0.6-0.7,1.1-1.2,0.9-1.8
			c-0.2-0.8-1.3-1.4-2.3-1.3c-0.4,0-0.6,0.1-1.1,0.3c-1.2,0.5-1.3,0.9-2,0.9c-0.7,0.1-0.7-0.4-1.8-0.6c-0.4-0.1-1.4-0.2-2.1,0.3
			c-0.8,0.5-1.4,1.8-1,2.7c0.1,0.1,0.3,0.6,0.8,0.8c0.9,0.5,1.6-0.4,2.5,0C136,72.2,135.9,72.8,136.8,73.4z"/>
		<path class="st5" d="M138.6,75.5c-0.3,0.8,0.9,1.3,1.1,2.6c0.3,1.5-1.1,2.3-0.6,3.6c0.2,0.4,0.6,1,1,0.9c0.6,0,1.1-0.9,1.1-1.6
			c0.1-0.8-0.4-0.9-0.6-2.1c-0.2-1.1,0.1-1.4-0.2-2.5c-0.1-0.5-0.4-1.4-0.9-1.5C139.2,74.8,138.8,75.1,138.6,75.5z"/>
		<path class="st5" d="M142.5,78.6c-0.4-0.3-0.3-0.7-0.6-1.6c-0.4-1.5-0.8-1.4-0.8-2.1c0-0.7,0.3-1.7,1.1-2.1
			c0.9-0.5,1.5,0.3,2.5-0.1c1-0.5,0.9-1.7,1.8-2c0.4-0.1,1,0,1.2,0.3c0.4,0.6-0.4,1.9-1.5,2.5c-0.8,0.4-1.2,0.1-1.5,0.5
			c-0.6,0.6,0.2,1.6-0.2,3.6c-0.1,0.7-0.3,1-0.6,1.2C143.5,79,142.9,78.9,142.5,78.6z"/>
		<path class="st5" d="M136.7,92.3c0.5,0.2,0.8-0.7,1.9-1.1c1.7-0.5,3.1,1.1,3.9,0.5c0.6-0.5-0.2-1.9,0.4-2.5c0.7-0.5,1.9,0.8,3,0.3
			c1-0.4,0.6-1.6,1.8-2.4c1-0.7,1.7-0.1,2.5-0.8c0.8-0.7,1-1.4,1.6-1.6c0.8-0.4,1.8,0.2,2.2-0.1c1.7-1.6-0.9-1.8-0.2-3
			c0.5-0.8,0.8-0.5,1.6-1.3c1.1-1.2,0.7-3.7-0.4-4.3c-0.8-0.4-1.5,0.4-2.3-0.1c-0.8-0.5-0.4-1.9-1-2.1c-0.5-0.2-0.9,0.5-2.1,1
			c-1.6,0.7-2.4,0-3,0.6c-1.2,1.2,1.4,5,0.3,5.9c-0.8,0.7-2.6-1.1-3.7-0.4c-1.1,0.8-0.2,3.2-1.6,4c-0.4,0.2-0.5,0.1-1.6,0.5
			c-0.9,0.4-1.3,0.5-1.5,0.9c-0.5,0.9,0.9,2,0.4,2.7c-0.4,0.6-1.6,0-2.3,0.7C135.9,90.4,136.1,92.1,136.7,92.3z"/>
	</g>
	<path d="M61.1,148.5c0,0-0.2,11,10.6,17.1c10.8,6.1,21.6,5.7,29.4,4c7.8-1.7,18.6-6.3,21.4-8.9s4.9-7,4.9-7s-20.5,12.9-35.6,10.6
		c-15.2-2.3-18.4-4.9-22.5-8.7S61.1,148.5,61.1,148.5z"/>
	<g id="collar_00000127724984249793648920000010347514505656030638_">
		<g>
			<path class="st0" d="M82.9,172.9c-3.2,0-5.7-2.6-5.7-5.7c0-3.2,2.6-5.7,5.7-5.7s5.7,2.6,5.7,5.7
				C88.7,170.4,86.1,172.9,82.9,172.9z"/>
			<path d="M82.9,162.2c2.8,0,5,2.2,5,5s-2.2,5-5,5s-5-2.2-5-5S80.2,162.2,82.9,162.2 M82.9,160.7c-3.6,0-6.5,2.9-6.5,6.5
				s2.9,6.5,6.5,6.5c3.6,0,6.5-2.9,6.5-6.5S86.5,160.7,82.9,160.7L82.9,160.7z"/>
		</g>
		<g>
			<path class="st0" d="M72,167.1c-2.7,0-5-2.2-5-5s2.2-5,5-5s5,2.2,5,5S74.7,167.1,72,167.1z"/>
			<path d="M72,157.9c2.3,0,4.2,1.9,4.2,4.2s-1.9,4.2-4.2,4.2s-4.2-1.9-4.2-4.2S69.7,157.9,72,157.9 M72,156.4
				c-3.2,0-5.7,2.6-5.7,5.7s2.6,5.7,5.7,5.7s5.7-2.6,5.7-5.7S75.2,156.4,72,156.4L72,156.4z"/>
		</g>
		<g>
			<path class="st0" d="M95,173.6c-2.7,0-5-2.2-5-5c0-2.7,2.2-5,5-5s5,2.2,5,5C100,171.3,97.8,173.6,95,173.6z"/>
			<path d="M95,164.3c2.3,0,4.2,1.9,4.2,4.2s-1.9,4.2-4.2,4.2s-4.2-1.9-4.2-4.2S92.7,164.3,95,164.3 M95,162.8
				c-3.2,0-5.7,2.6-5.7,5.7c0,3.2,2.6,5.7,5.7,5.7s5.7-2.6,5.7-5.7C100.8,165.4,98.2,162.8,95,162.8L95,162.8z"/>
		</g>
		<g>
			<path class="st0" d="M106.7,169.7c-2.3,0-4.2-1.9-4.2-4.2s1.9-4.2,4.2-4.2s4.2,1.9,4.2,4.2S109,169.7,106.7,169.7z"/>
			<path d="M106.7,162c1.9,0,3.5,1.6,3.5,3.5s-1.6,3.5-3.5,3.5s-3.5-1.6-3.5-3.5S104.7,162,106.7,162 M106.7,160.5c-2.7,0-5,2.2-5,5
				s2.2,5,5,5c2.7,0,5-2.2,5-5S109.4,160.5,106.7,160.5L106.7,160.5z"/>
		</g>
		<g>
			<circle class="st0" cx="116.5" cy="162.1" r="4.2"/>
			<path d="M116.5,158.7c1.9,0,3.5,1.6,3.5,3.5s-1.6,3.5-3.5,3.5s-3.5-1.6-3.5-3.5S114.6,158.7,116.5,158.7 M116.5,157.2
				c-2.7,0-5,2.2-5,5s2.2,5,5,5c2.7,0,5-2.2,5-5S119.3,157.2,116.5,157.2L116.5,157.2z"/>
		</g>
		<g>
			<circle class="st0" cx="62.8" cy="155.1" r="4.2"/>
			<path d="M62.8,151.6c1.9,0,3.5,1.6,3.5,3.5c0,1.9-1.6,3.5-3.5,3.5c-1.9,0-3.5-1.6-3.5-3.5C59.4,153.2,60.9,151.6,62.8,151.6
				 M62.8,150.1c-2.7,0-5,2.2-5,5s2.2,5,5,5c2.7,0,5-2.2,5-5S65.6,150.1,62.8,150.1L62.8,150.1z"/>
		</g>
		<g>
			<path class="st0" d="M123.9,160.9c-2,0-3.6-1.6-3.6-3.6c0-2,1.6-3.6,3.6-3.6s3.6,1.6,3.6,3.6
				C127.5,159.3,125.9,160.9,123.9,160.9z"/>
			<path d="M123.9,154.5c1.6,0,2.8,1.3,2.8,2.8c0,1.6-1.3,2.8-2.8,2.8c-1.6,0-2.8-1.3-2.8-2.8C121.1,155.8,122.3,154.5,123.9,154.5
				 M123.9,153c-2.4,0-4.3,1.9-4.3,4.3s1.9,4.3,4.3,4.3c2.4,0,4.3-1.9,4.3-4.3S126.3,153,123.9,153L123.9,153z"/>
		</g>
	</g>
	<path class="st1" d="M125.5,223.3c-3.8-7.9-11.8-18.1-20.3-18.1c-2.1,0-4.1,0.6-5.9,1.8c-9.5,6.3-6.8,17.6-4.4,27.5
		c0.6,2.7,1.2,5.2,1.6,7.5c0.4,2.8,0.3,6.3,0.2,9.7c-0.2,6.6-0.4,13.5,3.5,17.6c2,2.1,5,3.2,8.7,3.2c7.7,0,12.7-4,15.7-8.5
		c0,0,1.6-2.8,2.1-3.8c0.8-1.6,1.2-3.3,1.4-4.6c2.5-7.9,3.2-14.8,0-26.1c-0.1-0.5-0.3-1.1-0.6-1.8
		C127.1,226.5,126.1,224.3,125.5,223.3z"/>
	<path id="Fill-6_00000068636930935403453480000002382011698589856897_" class="st6" d="M123.8,233.3c0-0.1,0-0.2-0.1-0.2
		c-0.2-0.7-0.4-1.5-0.6-2.3c-1.9-6.9-11-20.5-17.9-20.5c-1.1,0-2.1,0.3-3,1c-6.1,4-4.8,11.4-2.3,22c0.6,2.6,1.3,5.4,1.7,7.9
		c0.5,3.3,0.4,7,0.3,10.6c-0.2,5.6-0.4,11.3,2,13.8c1.1,1.1,2.7,1.6,5,1.6c0.7,0,1.3-0.1,1.9-0.1c0.2,0,0.4-0.1,0.5-0.1
		c0.4-0.1,0.8-0.2,1.2-0.3c0.2,0,0.4-0.1,0.5-0.1c0.4-0.1,0.8-0.3,1.2-0.4c0.1,0,0.2-0.1,0.3-0.1c0.5-0.2,1-0.5,1.4-0.7
		c0,0,0.1-0.1,0.1-0.1c0.4-0.2,0.8-0.5,1.1-0.8c0.1-0.1,0.2-0.2,0.3-0.2c0.3-0.2,0.6-0.5,0.8-0.7c0.1-0.1,0.2-0.2,0.3-0.3
		c0.3-0.3,0.6-0.6,0.8-0.9c0,0,0.1-0.1,0.1-0.1c0.3-0.4,0.5-0.7,0.8-1.1c0.1-0.1,0.1-0.2,0.2-0.3c0.2-0.3,0.3-0.5,0.5-0.8
		c0.1-0.1,0.1-0.3,0.2-0.4c0.1-0.2,0.2-0.4,0.3-0.7c0.1-0.1,0.1-0.3,0.2-0.4c0.1-0.2,0.2-0.4,0.2-0.6c0.2-0.4,0.3-0.8,0.4-1.1
		c0,0,0,0,0-0.1c0.1-0.2,0.2-0.5,0.2-0.7c0.3-0.9,0.4-1.6,0.4-1.7c0-0.1,0-0.2,0.1-0.3c1.9-6.1,2.7-11.2,1.1-18.7
		C124.2,234.7,124,234,123.8,233.3"/>
	<path id="Fill-8_00000022544758558333929350000016043287446260732809_" class="st6" d="M18.9,212.5c-1.9,2.4-2.6,5.7-1.8,9.5
		c2,9.5,18.8,27.9,30.2,30.6c0.9,0.2,1.7,0.3,2.3,0.3c1.8,0,2.4-0.7,2.8-1.2c1.4-2.1,0.6-6.8-0.5-9.3c-3.2-7.2-13.2-26.1-18.2-30
		c-2.5-2-5.3-3-7.9-3C23,209.4,20.6,210.5,18.9,212.5"/>
	<path class="st1" d="M110.3,265c7.3-0.8,9.5-5.9,9.8-9.6c0.1-2-1.1-4.4-3.1-4.6c-1.9-0.2-3.4,1.5-6,1.6c-2.5,0.1-5.3-1.7-6.8-1.2
		c-1.8,0.6-1.8,3.9-1.6,6.1C102.8,260.9,105.5,265.5,110.3,265z"/>
	<path class="st1" d="M34.7,241.1c-1.1,2.8,3.7,8.5,9.3,9.7c1.1,0.2,4.8,1,6.8-1.1c1.8-1.9,1.2-4.9,0.8-6.8c-1-4.9-4.8-9.3-7.6-8.8
		c-1.5,0.2-2.1,1.7-3.9,3.5C37.4,240.4,35.3,239.6,34.7,241.1z"/>
	<path class="st7" d="M105.4,253.8c2.2-0.1,1.8,1.4,4.6,1.2c2.5-0.1,2.4-1.2,4.6-0.9c1.6,0.3,0.8,3.7,0.3,5.6
		c-0.3,0.9-2.7,3.6-5.3,3.1c-3.7-0.7-4.4-4.5-4.6-5.1C104.8,257.5,103.8,253.9,105.4,253.8z"/>
	<path class="st7" d="M43.3,242.5c2.2-1.5,2-3.4,3.2-3.5c1.5-0.2,3.7,2.7,3.8,5.6c0,0.6,0.1,2.8-1.4,4c-1.9,1.6-4.9,0.5-6.3-0.4
		c-1.5-0.9-3.2-2.7-2.8-3.9C40.1,243.3,41.5,243.8,43.3,242.5z"/>
</g>
</svg>
