<?xml version="1.0" encoding="utf-8"?>
<!-- Generator: Adobe Illustrator 26.0.1, SVG Export Plug-In . SVG Version: 6.00 Build 0)  -->
<svg version="1.1" id="nuevo" xmlns="http://www.w3.org/2000/svg" xmlns:xlink="http://www.w3.org/1999/xlink" x="0px" y="0px"
	 viewBox="0 0 285 314.4" style="enable-background:new 0 0 285 314.4;" xml:space="preserve">
<style type="text/css">
	.st0{fill-rule:evenodd;clip-rule:evenodd;}
	.st1{fill-rule:evenodd;clip-rule:evenodd;fill:#005683;}
	.st2{fill-rule:evenodd;clip-rule:evenodd;fill:#FFD200;}
	.st3{fill-rule:evenodd;clip-rule:evenodd;fill:#FF8800;}
	.st4{fill-rule:evenodd;clip-rule:evenodd;fill:#FFFFFF;}
	.st5{fill:#996633;}
	.st6{fill:#FFFFFF;}
	.st7{fill:#FFFFFF;stroke:#000000;stroke-miterlimit:10;}
	.st8{fill:#00709C;}
	.st9{fill-rule:evenodd;clip-rule:evenodd;fill:#FF0000;}
</style>
<g>
	<g id="Page-1">
		<g id="レイヤー-1">
			<path id="Fill-1" class="st0" d="M6.1,57.9c1.5-0.4,4-0.6,14-0.6c3.2,0,6.9,0,10.8,0c4.4,0,9.1,0,13.8,0c7.5,0,18.1-0.1,25.6-0.5
				c12-8.7,25.8-13.4,41.1-13.8c33.2-1,62.5,13.3,78.4,38c5.4,5.1,15.5,10.8,18.2,11.4c4.6,1,7.6,5,7.1,9.5
				c-0.4,3.2-2.7,6.9-7.8,8.6c0.6,0.6,1.2,1.2,1.7,1.8c3.5,4.2,5,9,4.1,13.5c-0.2,0.9-0.4,1.8-0.7,2.6c7.6,12.9,11.5,27.5,11.5,42.5
				c0,3.8-0.3,7.6-0.8,11.3c1.2-0.2,2.4-0.3,3.6-0.3c5.8,0,11.1,2.5,14.6,6.8c3.9,4.8,5.3,11.2,3.9,18.1c-2.9,14-24.1,37.5-41,41.6
				c-1.7,0.4-3.3,0.6-4.7,0.6c-4.5,0-8.3-1.9-10.5-5.4c-0.7-1.1-1.2-2.3-1.6-3.5c-11.5,7.9-24.9,12.9-39,14.3
				c-3.1,10-11.3,11.6-16.4,11.6c-7.7,0-14.4-3.1-19.2-8.9c-0.4,0-0.9,0-1.3,0c-3.3,0-7.3-0.2-12-0.9c14.9,16.7,36.3,26.3,52.1,26.3
				h0c6.7,0,15.6-1.7,20.4-9.8c6.4-10.7,16.6-17.3,26.6-17.3c10.6,0,17.9,7.5,18.3,18.5c0.2,6-3,12.5-9.1,18.9
				c-10.3,10.7-30.4,21.5-51.9,21.5c-4.8,0-9.4-0.5-13.8-1.6c-38.1-9-72.2-39.5-82.2-73C23.6,212,26.5,135.6,38.6,101.6
				c0.8-2.4,1.7-4.7,2.7-6.9c-1.5,0.2-2.9,0.3-4.3,0.3c-3.3,0-6.6-0.5-9.6-1.4C8.4,87.8-0.2,73.8,0,66.1C0.1,62.1,2.5,58.8,6.1,57.9
				"/>
			<path id="Fill-2" class="st1" d="M203.6,214.8c1.9-3.5,4-7.1,6-10.3C207.9,208.1,205.9,211.6,203.6,214.8"/>
			<path id="Fill-3" class="st2" d="M68.3,147.2c11.7-10.5,19.8-17,31.5-19.4c7.8-1.6,17.2,0.5,25.4,2.3c6.2,1.4,11.6,2.6,15.8,2.1
				c6.4-0.7,11.5-4.1,13-8.6c1-3.2,0.7-8.4-6.4-14.7c-3-2.6-6.5-4.8-10.5-6.6c5.6,0,11.2-1.1,16.6-3.9c6.9,9.6,24.5,16.6,29.9,14.2
				c1.2-0.5,1.5-0.4,2.8-1.7c0.1,0.1,0.2,0.2,0.3,0.3c-1.4,1.3-1.5,2.2-1.9,4.4c-0.9,4.4,0.6,9.2,4.2,12.7c3.1,3.1,6.9,4.8,10.6,4.8
				c2.6,0,4.7-0.9,6.4-2.4c7.2,11.8,11.4,25.6,11.4,40.4c0,6.9-0.9,13.6-2.6,19.9c-7.3,6-19.2,29.7-21.8,35.7
				c-0.1,0.3-0.3,0.7-0.5,1.2c-12.4,11.5-28.6,19-46.6,20.4c0.2-3,0.1-6.1,0-9.2c-0.1-3.8-0.3-7.8,0.2-11c0.4-2.7,1.1-5.5,1.8-8.6
				c2.7-11.3,5.8-24.1-5-31.3c-2.1-1.4-4.3-2.1-6.7-2.1c-9.7,0-18.6,11.7-23.1,20.6c-6.2-10-16.4-16.4-28.5-17.6
				c-6.1-0.6-12.3,0.2-17.3,2c-1.8-6.5-2.7-13.2-2.7-20C64.5,162.8,65.8,154.9,68.3,147.2"/>
			<path id="Fill-6" class="st2" d="M115,218c0-0.1,0-0.2,0.1-0.3c0.2-0.8,0.4-1.7,0.7-2.6c2.2-7.8,12.5-23.4,20.4-23.4
				c1.2,0,2.3,0.4,3.5,1.1c6.9,4.6,5.5,12.9,2.6,25.1c-0.7,3-1.5,6.1-1.9,9c-0.6,3.8-0.4,8-0.3,12.1c0.2,6.3,0.4,12.9-2.3,15.7
				c-1.2,1.2-3.1,1.8-5.7,1.8c-0.8,0-1.5-0.1-2.2-0.1c-0.2,0-0.4-0.1-0.6-0.1c-0.5-0.1-1-0.2-1.4-0.3c-0.2-0.1-0.4-0.1-0.6-0.2
				c-0.5-0.1-0.9-0.3-1.4-0.5c-0.1-0.1-0.3-0.1-0.4-0.2c-0.6-0.3-1.1-0.5-1.6-0.8c0,0-0.1-0.1-0.1-0.1c-0.4-0.3-0.9-0.6-1.2-0.9
				c-0.1-0.1-0.2-0.2-0.3-0.3c-0.3-0.3-0.6-0.6-0.9-0.8c-0.1-0.1-0.2-0.2-0.3-0.3c-0.3-0.3-0.6-0.7-0.9-1.1c0,0-0.1-0.1-0.1-0.1
				c-0.3-0.4-0.6-0.8-0.9-1.2c-0.1-0.1-0.1-0.2-0.2-0.3c-0.2-0.3-0.4-0.6-0.6-0.9c-0.1-0.1-0.2-0.3-0.2-0.4
				c-0.1-0.3-0.3-0.5-0.4-0.8c-0.1-0.2-0.2-0.3-0.2-0.5c-0.1-0.2-0.2-0.4-0.3-0.6c-0.2-0.4-0.3-0.9-0.5-1.3c0,0,0,0,0-0.1
				c-0.1-0.3-0.2-0.5-0.3-0.8c-0.3-1.1-0.5-1.8-0.5-2c0-0.1-0.1-0.3-0.1-0.4c-2.2-6.9-3.1-12.8-1.3-21.3
				C114.6,219.6,114.8,218.8,115,218"/>
			<path id="Fill-7" class="st3" d="M44.7,66.2c8.7,0,21.2-0.1,29-0.7c0.7-0.1,1.3-0.1,1.7,0c-0.6,0.9-2,2.6-4.2,4.4l-0.6,0.5
				c-15.2,13-26.7,15.7-33.6,15.7h0c-2.5,0-4.9-0.3-7.1-1c-10.7-3.2-17.3-9.8-19.9-15c-1-1.9-1.2-3.2-1.2-3.8
				c1.5-0.1,5.2-0.2,11.3-0.2c3.2,0,6.9,0,10.8,0C35.2,66.2,40,66.2,44.7,66.2"/>
			<path id="Fill-8" class="st2" d="M234.5,194.3c2.2,2.7,3,6.5,2.1,10.8c-2.2,10.8-21.4,31.7-34.4,34.8c-1,0.2-1.9,0.4-2.7,0.4
				c-2,0-2.8-0.8-3.2-1.4c-1.6-2.4-0.7-7.7,0.6-10.6c3.6-8.2,15-29.8,20.8-34.2c2.9-2.2,6-3.4,9-3.4
				C229.8,190.7,232.6,192,234.5,194.3"/>
			<path id="Fill-10" class="st3" d="M69.6,240.8c4.4,2.6,8.7,4.7,12.8,6.3c13.5,24.7,42.9,43.7,68.4,44.2
				c13.2,0.2,23.4-4.7,28.9-14.1c6.2-10.5,15.7-14.3,21.9-12.7c4.1,1.1,6.5,4.5,6.7,9.7c0.1,4.6-3.9,10.7-10.8,16.3
				c-12.4,10.1-33.7,18.3-53.3,13.7C110.3,296.2,79.9,270.1,69.6,240.8"/>
			<path id="Fill-11" class="st3" d="M206.1,101c0.2,0,0.3,0.1,0.3,0.1c0,0-0.2,0.2-0.6,0.6c-0.9,0.6-4.5,2.3-14.3-0.3
				c0.3-2.3,0.2-5.1-0.8-8.5C196.3,96.9,202.8,100.3,206.1,101"/>
			<path id="Fill-13" class="st2" d="M46.8,104.5c2.5-6.9,5.5-13.2,9-18.9c5.2-2.6,11.1-6.3,17.6-11.9l0.5-0.4
				c7.2-6,6.2-8.7,5.9-9.6c-0.3-0.7-0.7-1.3-1.4-1.7c9.7-6.2,20.9-9.7,33.1-10.1c30.4-0.9,57,12,71.2,34.5
				c3.9,6.2,5.2,11.8,3.9,16.2c-1,3.2-3.2,5.2-4.9,5.9c-2.8,1.2-20.3-4.9-25.5-14.2c-0.3-0.5-0.8-0.9-1.4-1.1
				c-0.6-0.2-1.2-0.1-1.7,0.3c-12,7.4-25.5,4-37.2,0.3c-1.2-0.4-2.4,0.3-2.8,1.4c-0.2,0.6-0.1,1.3,0.2,1.8c-7.7-0.2-15.5,1-22.3,3.7
				c-1.1,0.4-1.7,1.7-1.2,2.8c0.4,1.1,1.7,1.7,2.8,1.2c16.8-6.6,39.6-3.4,51.8,7.4c4.2,3.7,6,7.3,5.1,10.1c-0.9,2.9-4.6,5.1-9.3,5.6
				c-3.5,0.4-8.8-0.8-14.4-2.1c-8.7-1.9-18.5-4.1-27.2-2.3c-14.2,2.9-23.6,11.4-37.8,24.3l-1.7,1.6c-0.9,0.8-1,2.2-0.2,3.1
				c0.4,0.5,1,0.7,1.6,0.7c0.5,0,1-0.2,1.4-0.5c-1.4,6-2.1,12.1-2.1,18.3c0,7.4,1,14.8,3,21.9c-2.3,1.3-4.2,2.8-5.5,4.6
				c-0.7,1-0.6,2.3,0.4,3.1c1,0.7,2.3,0.6,3.1-0.4c3.8-4.9,13.4-7.8,23-6.8c6.9,0.7,19.6,4,26.8,18.3c-0.3,0.7-0.5,1.4-0.7,2
				c-3.8,12.9-2.9,20.7,0,29.7c0.3,1.5,0.8,3.3,1.6,5.2c-9.7,0-26.7-2.1-44.8-14.6C32.6,210.3,35.7,136,46.8,104.5"/>
			<path id="Fill-14" class="st0" d="M7.2,62.2c-1.7,0.4-2.8,1.9-2.8,4c-0.1,5.3,7,18,24.1,23.1c2.7,0.8,5.5,1.2,8.4,1.2h0
				c3.2,0,7.4-0.5,12.2-2.2c-2.4,4.6-4.6,9.5-6.5,14.7c-5.3,14.8-9.5,42.1-7.2,69.6c1.8,21.6,8.2,50.1,28.3,64.5
				c8.9,32.7,42.2,62.6,79.4,71.4c4.2,1,8.4,1.4,12.7,1.4c17.1,0,33.8-7.3,44.4-16c8.1-6.6,12.6-13.8,12.4-19.8
				c-0.2-7.2-3.9-12.3-10-13.8c-7.8-2-19.4,2.4-26.8,14.7c-6,10.1-17,12.1-25.1,11.9c-22.5-0.4-48.3-16.3-62-37.6
				c9.2,2.8,17.2,3.5,22.8,3.5c0.9,0,1.7,0,2.5,0c3.4,5.1,9.1,9.7,17.9,9.7c4.2,0,7.6-1.2,9.9-3.6c4.5-4.6,4.2-12.4,3.9-20
				c-0.1-3.8-0.3-7.8,0.2-11c0.4-2.7,1.1-5.5,1.8-8.6c2.7-11.3,5.8-24.1-5-31.3c-2.1-1.4-4.3-2.1-6.7-2.1
				c-9.7,0-18.6,11.7-23.1,20.6c-6.2-10-16.4-16.4-28.5-17.6c-6.1-0.6-12.3,0.2-17.3,2c-1.8-6.5-2.7-13.2-2.7-20
				c0-8.1,1.3-16.1,3.8-23.8c11.7-10.5,19.8-17,31.5-19.4c7.8-1.6,17.2,0.5,25.4,2.3c6.2,1.4,11.6,2.6,15.8,2.1
				c6.4-0.7,11.5-4.1,13-8.6c1-3.2,0.7-8.4-6.4-14.7c-3-2.6-6.5-4.8-10.5-6.6c5.6,0,11.2-1.1,16.6-3.9c6.9,9.6,24.5,16.6,29.9,14.2
				c2.3-1,5-3.3,6.6-7c4.3,1.1,7.7,1.6,10.4,1.6c5,0,7.4-1.5,8.6-2.7c1.3-1.3,1.8-3,1.3-4.6c-0.5-1.6-1.8-2.7-3.5-3.1
				c-3.7-0.8-14.9-7.2-20.7-12.9c-15.1-23.7-43-37.3-74.9-36.3C96.5,48,83.1,52.7,71.7,61.3c-7.7,0.5-19,0.6-27,0.6
				c-4.7,0-9.4,0-13.8,0c-3.9,0-7.6,0-10.8,0C10.8,61.8,8.2,61.9,7.2,62.2L7.2,62.2z M191.4,101.4c0.3-2.3,0.2-5.1-0.8-8.5
				c5.7,4,12.2,7.4,15.5,8.1c0.2,0,0.3,0.1,0.3,0.1c0,0-0.2,0.2-0.6,0.6C204.8,102.3,201.2,104,191.4,101.4L191.4,101.4z
				 M115.8,241.7c-2.6-8.2-3.4-14.9,0-26.6c2.2-7.8,12.5-23.4,20.4-23.4c1.2,0,2.3,0.4,3.5,1.1c6.9,4.6,5.5,12.9,2.6,25.1
				c-0.7,3-1.5,6.1-1.9,9c-0.6,3.8-0.4,8-0.3,12.1c0.2,6.3,0.4,12.9-2.3,15.7c-1.2,1.2-3.1,1.8-5.7,1.8c-13.4,0-16-14-16.1-14.6
				C115.8,242,115.8,241.8,115.8,241.7L115.8,241.7z M144.2,304.3c-33.9-8-64.3-34.2-74.6-63.4c4.4,2.6,8.7,4.7,12.8,6.3
				c13.5,24.7,42.9,43.7,68.4,44.2c13.2,0.2,23.4-4.7,28.9-14.1c6.2-10.5,15.7-14.3,21.9-12.7c4.1,1.1,6.5,4.5,6.7,9.7
				c0.1,4.6-3.9,10.7-10.8,16.3C185.1,300.7,163.8,308.9,144.2,304.3L144.2,304.3z M46.8,104.5c2.5-6.9,5.5-13.2,9-18.9
				c5.2-2.6,11.1-6.3,17.6-11.9l0.5-0.4c7.2-6,6.2-8.7,5.9-9.6c-0.3-0.7-0.7-1.3-1.4-1.7c9.7-6.2,20.9-9.7,33.1-10.1
				c30.4-0.9,57,12,71.2,34.5c3.9,6.2,5.2,11.8,3.9,16.2c-1,3.2-3.2,5.2-4.9,5.9c-2.8,1.2-20.3-4.9-25.5-14.2
				c-0.3-0.5-0.8-0.9-1.4-1.1c-0.6-0.2-1.2-0.1-1.7,0.3c-12,7.4-25.5,4-37.2,0.3c-1.2-0.4-2.4,0.3-2.8,1.4c-0.2,0.6-0.1,1.3,0.2,1.8
				c-7.7-0.2-15.5,1-22.3,3.7c-1.1,0.4-1.7,1.7-1.2,2.8c0.4,1.1,1.7,1.7,2.8,1.2c16.8-6.6,39.6-3.4,51.8,7.4c4.2,3.7,6,7.3,5.1,10.1
				c-0.9,2.9-4.6,5.1-9.3,5.6c-3.5,0.4-8.8-0.8-14.4-2.1c-8.7-1.9-18.5-4.1-27.2-2.3c-14.2,2.9-23.6,11.4-37.8,24.3l-1.7,1.6
				c-0.9,0.8-1,2.2-0.2,3.1c0.4,0.5,1,0.7,1.6,0.7c0.5,0,1-0.2,1.4-0.5c-1.4,6-2.1,12.1-2.1,18.3c0,7.4,1,14.8,3,21.9
				c-2.3,1.3-4.2,2.8-5.5,4.6c-0.7,1-0.6,2.3,0.4,3.1c1,0.7,2.3,0.6,3.1-0.4c3.8-4.9,13.4-7.8,23-6.8c6.9,0.7,19.6,4,26.8,18.3
				c-0.3,0.7-0.5,1.4-0.7,2c-3.8,12.9-2.9,20.7,0,29.7c0.3,1.5,0.8,3.3,1.6,5.2c-9.7,0-26.7-2.1-44.8-14.6
				C32.6,210.3,35.7,136,46.8,104.5L46.8,104.5z M9.9,70.1c-1-1.9-1.2-3.2-1.2-3.8c1.5-0.1,5.2-0.2,11.3-0.2c3.2,0,6.9,0,10.8,0
				c4.4,0,9.2,0,13.9,0c8.7,0,21.2-0.1,29-0.7c0.7-0.1,1.3-0.1,1.7,0c-0.6,0.9-2,2.6-4.2,4.4l-0.6,0.5c-15.2,13-26.7,15.7-33.6,15.7
				h0c-2.5,0-4.9-0.3-7.1-1C19.1,81.9,12.5,75.3,9.9,70.1L9.9,70.1z"/>
			<path id="Fill-18" class="st0" d="M199.5,244.7c-3.8,0-5.8-1.8-6.8-3.4c-3.1-4.7-0.9-12.2,0.2-14.7c2.6-6,14.9-30.4,22.1-35.9
				c3.7-2.8,7.7-4.3,11.7-4.3c4.4,0,8.5,1.9,11.2,5.2c3.1,3.8,4.1,8.9,3,14.4c-2.6,12.4-22.9,34.7-37.7,38.2
				C201.8,244.5,200.6,244.7,199.5,244.7L199.5,244.7L199.5,244.7z M226.7,190.7c-3,0-6.1,1.2-9,3.4c-5.8,4.4-17.2,26-20.8,34.2
				c-1.3,2.9-2.2,8.1-0.6,10.6c0.4,0.6,1.1,1.4,3.2,1.4c0.8,0,1.7-0.1,2.7-0.4c13-3.1,32.2-24,34.4-34.8c0.9-4.2,0.1-8.1-2.1-10.8
				C232.6,192,229.8,190.7,226.7,190.7L226.7,190.7z"/>
		</g>
	</g>
	<path id="camisa" class="st4" d="M65.3,193.4c6.4-2.7,20.8-2.3,20.8-2.3s-2.2-19.5,3.4-31.5c9.9-21,38-22.4,38-22.4s3.1-6.9,1.8-8
		c-5.7-4.8-17.8-5.2-28.8-4.2c-4.1,0.4-26.5,8.8-35.2,22.4c-1.5,2.3-2.2,6.4-2.9,14c-0.2,1.8-0.8,8.8-0.4,18.2
		C62.4,187.7,63,194.3,65.3,193.4z"/>
	<g>
		<path class="st5" d="M152.6,245.9c-16.3,0-33.2-7.6-46.4-20.8c-11.3-11.3-18.5-25.4-20.2-39.7c-1.8-14.5,2.3-27.5,11.4-36.6
			c7.6-7.6,18-11.6,29.9-11.6c0,0,0,0,0,0c1.4-7,4.6-13.1,9.3-17.8c6.6-6.5,15.5-10,25.8-10c14.5,0,29.5,6.8,41.3,18.6
			c10,10,16.4,22.5,18,35c1.7,12.8-1.8,24.2-9.7,32.1c-4.7,4.7-10.9,7.9-17.9,9.2c0,11.8-4.2,22.3-11.7,29.9
			C174.9,241.8,164.5,245.9,152.6,245.9C152.6,245.9,152.6,245.9,152.6,245.9z"/>
		<path d="M162.5,111.8c13.2,0,27.9,6.2,39.5,17.9c19.9,19.9,23.6,48.4,8.3,63.6c-5,5-11.5,7.9-18.6,8.9c0.4,11.6-3.1,22.4-11,30.2
			c-7.4,7.3-17.4,10.9-28.1,10.9c-15,0-31.5-6.9-44.6-20.1c-22.5-22.6-26.5-55.2-8.8-72.8c7.4-7.3,17.4-10.9,28.1-10.9
			c0.7,0,1.4,0,2.1,0c1-7.1,4-13.6,9-18.6C144.7,114.9,153.3,111.8,162.5,111.8 M162.5,106.8c-11,0-20.5,3.7-27.6,10.7
			c-4.6,4.6-7.9,10.5-9.6,17.1c-11.8,0.4-22,4.7-29.7,12.3c-9.6,9.6-13.9,23.3-12.1,38.6c1.8,14.8,9.2,29.5,20.9,41.2
			c13.6,13.7,31.2,21.5,48.1,21.5c12.6,0,23.5-4.3,31.7-12.4c7.6-7.6,11.9-18,12.4-29.6c6.7-1.6,12.5-4.9,17.2-9.5
			c8.5-8.5,12.2-20.6,10.4-34.2c-1.7-13.1-8.4-26-18.8-36.5C193.3,113.9,177.6,106.8,162.5,106.8L162.5,106.8z"/>
	</g>
	<g>
		<rect x="201.6" y="64.7" transform="matrix(0.7055 0.7087 -0.7087 0.7055 143.9856 -116.611)" width="21.5" height="100.5"/>
		
			<rect x="207.7" y="62.5" transform="matrix(0.7055 0.7087 -0.7087 0.7055 138.6943 -115.5895)" class="st6" width="1.5" height="93.2"/>
		
			<rect x="209.7" y="64.5" transform="matrix(0.7055 0.7087 -0.7087 0.7055 140.6822 -116.4052)" class="st6" width="1.5" height="93.2"/>
		
			<rect x="211.6" y="66.5" transform="matrix(0.7055 0.7087 -0.7087 0.7055 142.6701 -117.2209)" class="st6" width="1.5" height="93.2"/>
		
			<rect x="213.6" y="68.5" transform="matrix(0.7055 0.7087 -0.7087 0.7055 144.6581 -118.0366)" class="st6" width="1.5" height="93.2"/>
		
			<rect x="215.6" y="70.5" transform="matrix(0.7055 0.7087 -0.7087 0.7055 146.646 -118.8522)" class="st6" width="1.5" height="93.2"/>
		
			<rect x="217.6" y="72.4" transform="matrix(0.7055 0.7087 -0.7087 0.7055 148.6339 -119.6679)" class="st6" width="1.5" height="93.2"/>
		<g>
			<path class="st5" d="M253.5,87.6l-14-14.1c-1.1-1.1-1.2-2.8-0.4-4.1l17.9-26c1.1-1.7,3.5-1.9,4.9-0.4l22.2,22.3
				c1.4,1.4,1.2,3.8-0.5,4.9L257.6,88C256.3,88.9,254.6,88.7,253.5,87.6z"/>
			<path d="M281.9,67.5c0,0,0.1,0.1,0.1,0.2c0,0.1-0.1,0.1-0.1,0.1l-26.1,17.8c-0.1,0.1-0.2,0-0.3,0l-14-14.1
				c-0.1-0.1-0.1-0.2,0-0.3l17.9-26c0,0,0.1-0.1,0.1-0.1c0.1,0,0.1,0,0.2,0.1L281.9,67.5 M284.1,65.3l-22.2-22.3
				c-1.4-1.4-3.8-1.2-4.9,0.4l-17.9,26c-0.9,1.3-0.7,3,0.4,4.1l14,14.1c1.1,1.1,2.8,1.3,4.1,0.4l26.1-17.8
				C285.3,69.1,285.5,66.8,284.1,65.3L284.1,65.3z"/>
		</g>
		<path class="st7" d="M246.1,73.7L246.1,73.7c-1.1-1.1-1.1-2.9,0-4.1L260.8,55c1.1-1.1,2.9-1.1,4.1,0v0c1.1,1.1,1.1,2.9,0,4.1
			l-14.7,14.6C249.1,74.8,247.3,74.8,246.1,73.7z"/>
		<path class="st7" d="M253.2,80.8L253.2,80.8c-1.1-1.1-1.1-2.9,0-4.1l14.7-14.6c1.1-1.1,2.9-1.1,4.1,0v0c1.1,1.1,1.1,2.9,0,4.1
			l-14.7,14.6C256.1,81.9,254.3,81.9,253.2,80.8z"/>
		<g>
			<rect x="249.7" y="46.8" transform="matrix(1 2.216566e-03 -2.216566e-03 1 0.1077 -0.5568)" width="3.1" height="3.1"/>
		</g>
		<g>
			<rect x="276.8" y="74.6" transform="matrix(1 2.216566e-03 -2.216566e-03 1 0.1694 -0.6169)" width="3.1" height="3.1"/>
		</g>
		<g>
			<rect x="269.7" y="79.4" transform="matrix(1 2.216566e-03 -2.216566e-03 1 0.1801 -0.6011)" width="3.1" height="3.1"/>
		</g>
		<g>
			<rect x="262.7" y="83.8" transform="matrix(1 2.216566e-03 -2.216566e-03 1 0.1898 -0.5856)" width="3.1" height="3.1"/>
		</g>
		<g>
			<rect x="240.2" y="61.2" transform="matrix(1 2.216566e-03 -2.216566e-03 1 0.1397 -0.5358)" width="3.1" height="3.1"/>
		</g>
		<g>
			<rect x="245.1" y="53.9" transform="matrix(1 2.216566e-03 -2.216566e-03 1 0.1235 -0.5465)" width="3.1" height="3.1"/>
		</g>
	</g>
	<g>
		<path d="M183.3,144.9c-11.8-11.8-30.9-11.9-42.7-0.1c-11.8,11.8-11.9,30.9-0.1,42.7c11.8,11.8,30.9,11.9,42.7,0.1
			C195,175.8,195.1,156.7,183.3,144.9L183.3,144.9z"/>
		<path class="st8" d="M181.4,146.8c-10.7-10.8-28.2-10.8-39-0.1c-10.8,10.7-10.8,28.2-0.1,39c10.7,10.8,28.2,10.8,39,0.1
			C192.1,175,192.2,157.6,181.4,146.8L181.4,146.8z"/>
		<path class="st6" d="M178.8,149.4c2.3,2.3,4,4.9,5.2,7.9c0.6,1.4,1,2.9,1.3,4.4c0.3,1.5,0.4,3,0.4,4.5c0,1.5-0.2,3.1-0.4,4.5
			c-0.3,1.5-0.7,3-1.3,4.4c-1.2,2.9-3,5.6-5.2,7.9s-4.9,4-7.9,5.2c-1.4,0.6-2.9,1-4.4,1.3c-1.5,0.3-3,0.4-4.5,0.4
			c-1.5,0-3.1-0.2-4.5-0.4c-1.5-0.3-3-0.7-4.4-1.3c-2.9-1.2-5.6-3-7.9-5.2c-2.3-2.3-4-4.9-5.2-7.9c-0.6-1.4-1-2.9-1.3-4.4
			c-0.3-1.5-0.4-3-0.4-4.5c0-1.5,0.2-3.1,0.4-4.5c0.3-1.5,0.7-3,1.3-4.4c1.2-2.9,3-5.6,5.2-7.9c2.3-2.3,4.9-4,7.9-5.2
			c1.4-0.6,2.9-1,4.4-1.3c1.5-0.3,3-0.4,4.5-0.4c1.5,0,3.1,0.2,4.5,0.4c1.5,0.3,3,0.7,4.4,1.3C173.9,145.4,176.5,147.2,178.8,149.4"
			/>
		<path class="st8" d="M147,151.3c-5.9,5.9-7.6,14.4-5.1,21.8l12.4-26.6C151.7,147.5,149.2,149.1,147,151.3z M172.7,175.5
			c1.8-1.8,2.5-3.8,2.9-5.3c0.5-2,0.8-3.7,2-5c1.4-1.4,3.7-1.6,5.2-0.1c0.1,0.1,0.1,0.1,0.2,0.2c-0.2-5.1-2.2-10.1-6.1-14
			c-5.2-5.2-12.4-7.1-19.2-5.8c0.3,0.4,0.7,0.7,0.9,1c1.6,1.6,4.2,3.8,4.2,3.8c0.8,0.8-0.2,2-1.1,1.3c0,0-0.9-0.7-1.8-1.6L149,171.6
			l13.1-6.5l4.1-8.7c-0.8-0.9-1.4-1.7-1.4-1.7c-0.8-0.9,0.6-2,1.3-1.1c0,0,2.3,2.7,3.7,4.1c1.6,1.6,4.2,3.8,4.2,3.8
			c0.8,0.8-0.2,2-1.1,1.3c0,0-0.9-0.7-1.8-1.6l-10.7,21.4l6.4-3.3C169.5,177.9,171.4,176.8,172.7,175.5z M160.9,167.8l-17.5,8.5
			c0.9,1.7,2.1,3.4,3.6,4.8c1.7,1.7,3.7,3.1,5.8,4.1c0-0.1,0.1-0.2,0.1-0.3L160.9,167.8z M182.1,172.2c-0.4,0.5-0.9,1.1-1.4,1.6
			c-1.5,1.5-3.5,2.9-6.5,4.2l-17.7,8.6c7,1.9,14.8,0.1,20.3-5.4C179.4,178.6,181.2,175.5,182.1,172.2z"/>
	</g>
	<path class="st0" d="M114.1,252.9c3.4,5.1,9.1,9.7,17.9,9.7c4.2,0,7.6-1.2,9.9-3.6c4.5-4.6,4.2-12.4,3.9-20
		c-0.1-3.8-0.3-7.8,0.2-11c0.4-2.7,1.1-5.5,1.8-8.6c2.7-11.3,5.8-24.1-5-31.3c-2.1-1.4-4.3-2.1-6.7-2.1c-9.7,0-18.6,11.7-23.1,20.6
		l-2.2,5c-0.3,0.7-0.5,1.4-0.7,2c-3.8,12.9-2.9,20.7,0,29.7c0.3,1.5,0.8,3.3,1.6,5.2L114.1,252.9z"/>
	<path id="Fill-12" class="st0" d="M210.5,134c-3.7,0-7.5-1.8-10.6-4.8c-3.5-3.5-5.1-8.2-4.2-12.7c0.7-3.3,2.7-5.9,5.4-7
		c0.7-0.3,1.6-0.4,2.5-0.4c4,0,9.5,3,12.9,7.1c2.6,3.2,3.8,6.7,3.2,9.9C218.8,131,215.3,134,210.5,134L210.5,134L210.5,134z
		 M203.6,113.5c-0.3,0-0.6,0-0.9,0.1c-1.3,0.5-2.3,1.9-2.7,3.8c-0.6,3,0.5,6.2,3,8.7c2.2,2.2,5,3.5,7.5,3.5c1.9,0,4.2-0.8,4.9-4.3
		c0.5-2.5-1.2-5-2.2-6.3C210.3,115.6,206,113.5,203.6,113.5L203.6,113.5z"/>
	<path id="Fill-9_00000169557929778001726260000004840858687510806406_" class="st2" d="M215.4,125.3c-0.7,3.6-3,4.3-4.9,4.3
		c-2.5,0-5.2-1.3-7.5-3.5c-2.5-2.5-3.6-5.7-3-8.7c0.4-1.9,1.4-3.3,2.7-3.8c0.2-0.1,0.5-0.1,0.9-0.1c2.4,0,6.7,2.1,9.5,5.6
		C214.2,120.3,215.9,122.8,215.4,125.3"/>
	<ellipse class="st0" cx="187.1" cy="112.4" rx="4.1" ry="2.9"/>
	<path class="st2" d="M115.8,241.7c-2.6-8.2-3.4-14.9,0-26.6c2.2-7.8,12.5-23.4,20.4-23.4c1.2,0,2.3,0.4,3.5,1.1
		c6.9,4.6,5.5,12.9,2.6,25.1c-0.7,3-1.5,6.1-1.9,9c-0.6,3.8-0.4,8-0.3,12.1c0.2,6.3,0.4,12.9-2.3,15.7c-1.2,1.2-3.1,1.8-5.7,1.8
		c-13.4,0-16-14-16.1-14.6C115.8,242,115.8,241.8,115.8,241.7L115.8,241.7z"/>
	<path class="st2" d="M46.8,104.5c2.5-6.9,5.5-13.2,9-18.9c5.2-2.6,11.1-6.3,17.6-11.9l0.5-0.4c7.2-6,6.2-8.7,5.9-9.6
		c-0.3-0.7-0.7-1.3-1.4-1.7c9.7-6.2,20.9-9.7,33.1-10.1c30.4-0.9,57,12,71.2,34.5c3.9,6.2,5.2,11.8,3.9,16.2c-1,3.2-3.2,5.2-4.9,5.9
		c-2.8,1.2-20.3-4.9-25.5-14.2c-0.3-0.5-0.8-0.9-1.4-1.1c-0.6-0.2-1.2-0.1-1.7,0.3c-12,7.4-25.5,4-37.2,0.3
		c-1.2-0.4-2.4,0.3-2.8,1.4c-0.2,0.6-0.1,1.3,0.2,1.8c-7.7-0.2-15.5,1-22.3,3.7c-1.1,0.4-1.7,1.7-1.2,2.8c0.4,1.1,1.7,1.7,2.8,1.2
		c16.8-6.6,39.6-3.4,51.8,7.4c4.2,3.7,6,7.3,5.1,10.1c-0.9,2.9-4.6,5.1-9.3,5.6c-3.5,0.4-8.8-0.8-14.4-2.1
		c-8.7-1.9-18.5-4.1-27.2-2.3c-14.2,2.9-23.6,11.4-37.8,24.3l-1.7,1.6c-0.9,0.8-1,2.2-0.2,3.1c0.4,0.5,1,0.7,1.6,0.7
		c0.5,0,1-0.2,1.4-0.5c-1.4,6-2.1,12.1-2.1,18.3c0,7.4,1,14.8,3,21.9c-2.3,1.3-4.2,2.8-5.5,4.6c-0.7,1-0.6,2.3,0.4,3.1
		c1,0.7,2.3,0.6,3.1-0.4c3.8-4.9,13.4-7.8,23-6.8c6.9,0.7,19.6,4,26.8,18.3c-0.3,0.7-0.5,1.4-0.7,2c-3.8,12.9-2.9,20.7,0,29.7
		c0.3,1.5,0.8,3.3,1.6,5.2c-9.7,0-26.7-2.1-44.8-14.6C32.6,210.3,35.7,136,46.8,104.5L46.8,104.5z"/>
	<path id="Fill-15" class="st0" d="M158.3,82.8c3.5,2.6,2.4,5.8-1.5,6.3c-3.9,0.5-4.2,0.7-7.8-1.9c-3.9-2.9-4.4-7.8,0-7.3
		C153.4,80.4,156.4,81.4,158.3,82.8"/>
	<path id="Fill-16" class="st0" d="M168.5,84.8c0,2.4,2,4.4,4.4,4.4c2.4,0,4.4-2,4.4-4.4c0-2.4-2-4.4-4.4-4.4
		C170.5,80.4,168.5,82.4,168.5,84.8"/>
	<path id="Fill-17" class="st0" d="M117.9,72.6c0,2.4,2,4.4,4.4,4.4s4.4-2,4.4-4.4c0-2.4-2-4.4-4.4-4.4S117.9,70.2,117.9,72.6"/>
	<path id="Fill-14_00000126298007062365537290000005815817099015953818_" class="st0" d="M7.2,62.2c-1.7,0.4-2.8,1.9-2.8,4
		c-0.1,5.3,7,18,24.1,23.1c2.7,0.8,5.5,1.2,8.4,1.2h0c3.2,0,7.4-0.5,12.2-2.2c-2.4,4.6-4.6,9.5-6.5,14.7
		c-5.3,14.8-9.5,42.1-7.2,69.6c1.8,21.6,8.2,50.1,28.3,64.5c8.9,32.7,42.2,62.6,79.4,71.4c4.2,1,8.4,1.4,12.7,1.4
		c17.1,0,33.8-7.3,44.4-16c8.1-6.6,12.6-13.8,12.4-19.8c-0.2-7.2-3.9-12.3-10-13.8c-7.8-2-19.4,2.4-26.8,14.7
		c-6,10.1-17,12.1-25.1,11.9c-22.5-0.4-48.3-16.3-62-37.6c9.2,2.8,17.2,3.5,22.8,3.5c0.9,0,1.7,0,2.5,0c3.4,5.1,9.1,9.7,17.9,9.7
		c4.2,0,7.6-1.2,9.9-3.6c4.5-4.6,4.2-12.4,3.9-20c-0.1-3.8-0.3-7.8,0.2-11c0.4-2.7,1.1-5.5,1.8-8.6c2.7-11.3,5.8-24.1-5-31.3
		c-2.1-1.4-4.3-2.1-6.7-2.1c-9.7,0-18.6,11.7-23.1,20.6c-6.2-10-16.4-16.4-28.5-17.6c-6.1-0.6-12.3,0.2-17.3,2
		c-1.8-6.5-2.7-13.2-2.7-20c0-8.1,1.3-16.1,3.8-23.8c11.7-10.5,19.8-17,31.5-19.4c7.8-1.6,17.2,0.5,25.4,2.3
		c6.2,1.4,11.6,2.6,15.8,2.1c6.4-0.7,11.5-4.1,13-8.6c1-3.2,0.7-8.4-6.4-14.7c-3-2.6-6.5-4.8-10.5-6.6c5.6,0,11.2-1.1,16.6-3.9
		c6.9,9.6,24.5,16.6,29.9,14.2c2.3-1,5-3.3,6.6-7c4.3,1.1,7.7,1.6,10.4,1.6c5,0,7.4-1.5,8.6-2.7c1.3-1.3,1.8-3,1.3-4.6
		c-0.5-1.6-1.8-2.7-3.5-3.1c-3.7-0.8-14.9-7.2-20.7-12.9c-15.1-23.7-43-37.3-74.9-36.3C96.5,48,83.1,52.7,71.7,61.3
		c-7.7,0.5-19,0.6-27,0.6c-4.7,0-9.4,0-13.8,0c-3.9,0-7.6,0-10.8,0C10.8,61.8,8.2,61.9,7.2,62.2L7.2,62.2z M191.4,101.4
		c0.3-2.3,0.2-5.1-0.8-8.5c5.7,4,12.2,7.4,15.5,8.1c0.2,0,0.3,0.1,0.3,0.1c0,0-0.2,0.2-0.6,0.6C204.8,102.3,201.2,104,191.4,101.4
		L191.4,101.4z M115.8,241.7c-2.6-8.2-3.4-14.9,0-26.6c2.2-7.8,12.5-23.4,20.4-23.4c1.2,0,2.3,0.4,3.5,1.1
		c6.9,4.6,5.5,12.9,2.6,25.1c-0.7,3-1.5,6.1-1.9,9c-0.6,3.8-0.4,8-0.3,12.1c0.2,6.3,0.4,12.9-2.3,15.7c-1.2,1.2-3.1,1.8-5.7,1.8
		c-13.4,0-16-14-16.1-14.6C115.8,242,115.8,241.8,115.8,241.7L115.8,241.7z M144.2,304.3c-33.9-8-64.3-34.2-74.6-63.4
		c4.4,2.6,8.7,4.7,12.8,6.3c13.5,24.7,42.9,43.7,68.4,44.2c13.2,0.2,23.4-4.7,28.9-14.1c6.2-10.5,15.7-14.3,21.9-12.7
		c4.1,1.1,6.5,4.5,6.7,9.7c0.1,4.6-3.9,10.7-10.8,16.3C185.1,300.7,163.8,308.9,144.2,304.3L144.2,304.3z M46.8,104.5
		c2.5-6.9,5.5-13.2,9-18.9c5.2-2.6,11.1-6.3,17.6-11.9l0.5-0.4c7.2-6,6.2-8.7,5.9-9.6c-0.3-0.7-0.7-1.3-1.4-1.7
		c9.7-6.2,20.9-9.7,33.1-10.1c30.4-0.9,57,12,71.2,34.5c3.9,6.2,5.2,11.8,3.9,16.2c-1,3.2-3.2,5.2-4.9,5.9
		c-2.8,1.2-20.3-4.9-25.5-14.2c-0.3-0.5-0.8-0.9-1.4-1.1c-0.6-0.2-1.2-0.1-1.7,0.3c-12,7.4-25.5,4-37.2,0.3
		c-1.2-0.4-2.4,0.3-2.8,1.4c-0.2,0.6-0.1,1.3,0.2,1.8c-7.7-0.2-15.5,1-22.3,3.7c-1.1,0.4-1.7,1.7-1.2,2.8c0.4,1.1,1.7,1.7,2.8,1.2
		c16.8-6.6,39.6-3.4,51.8,7.4c4.2,3.7,6,7.3,5.1,10.1c-0.9,2.9-4.6,5.1-9.3,5.6c-3.5,0.4-8.8-0.8-14.4-2.1
		c-8.7-1.9-18.5-4.1-27.2-2.3c-14.2,2.9-23.6,11.4-37.8,24.3l-1.7,1.6c-0.9,0.8-1,2.2-0.2,3.1c0.4,0.5,1,0.7,1.6,0.7
		c0.5,0,1-0.2,1.4-0.5c-1.4,6-2.1,12.1-2.1,18.3c0,7.4,1,14.8,3,21.9c-2.3,1.3-4.2,2.8-5.5,4.6c-0.7,1-0.6,2.3,0.4,3.1
		c1,0.7,2.3,0.6,3.1-0.4c3.8-4.9,13.4-7.8,23-6.8c6.9,0.7,19.6,4,26.8,18.3c-0.3,0.7-0.5,1.4-0.7,2c-3.8,12.9-2.9,20.7,0,29.7
		c0.3,1.5,0.8,3.3,1.6,5.2c-9.7,0-26.7-2.1-44.8-14.6C32.6,210.3,35.7,136,46.8,104.5L46.8,104.5z M9.9,70.1c-1-1.9-1.2-3.2-1.2-3.8
		c1.5-0.1,5.2-0.2,11.3-0.2c3.2,0,6.9,0,10.8,0c4.4,0,9.2,0,13.9,0c8.7,0,21.2-0.1,29-0.7c0.7-0.1,1.3-0.1,1.7,0
		c-0.6,0.9-2,2.6-4.2,4.4l-0.6,0.5c-15.2,13-26.7,15.7-33.6,15.7h0c-2.5,0-4.9-0.3-7.1-1C19.1,81.9,12.5,75.3,9.9,70.1L9.9,70.1z"/>
	<path id="chaqueta" d="M82.4,244.8c0,0,7.9-7,12.9-18c4.9-11,9.9-26.5,9.9-26.5s-8.6-6.8-17.8-9.1c-3.1-0.8-2.9-13.2,0-23.9
		c2.4-9,7.3-16.5,7.3-16.5l-27.3,2.7c0,0-0.3-1.8,2.8-6.6c2.9-4.4,12.3-11.4,13.9-12.3c6.8-4,12.4-6.7,23.7-6.3
		c10.2,0.3,15.2,3.6,15.2,3.6c-0.4-4.5-0.1-11.3,1.2-18.3c1-5.2,4.2-9.4,5.7-12.9c-16.6-0.3-30.9-2.8-40.3,0.4
		c-25.8,8.6-47.6,2.7-47.6,2.7s-6.1,16.6-6.7,33c-0.6,16.5-0.9,36.7,0.6,46c1.5,9.3,8.5,31.9,14.5,41.6
		C55.7,232.9,82.4,244.8,82.4,244.8z"/>
	<g>
		<ellipse transform="matrix(0.961 -0.2765 0.2765 0.961 -9.2314 31.6639)" class="st0" cx="107.7" cy="48.6" rx="81" ry="15"/>
		<path class="st0" d="M67.7,18.7l5.6,26.2c0.3,1.3,1.6,2.1,2.8,1.7l56.6-15.2c1.3-0.3,2-1.7,1.6-3l-9.8-26.9
			c-0.4-1.1-1.7-1.8-2.8-1.4L69.3,16C68.1,16.4,67.5,17.5,67.7,18.7z"/>
		<rect x="74.4" y="30.7" transform="matrix(0.961 -0.2765 0.2765 0.961 -5.1018 29.6997)" class="st9" width="56.7" height="4.4"/>
	</g>
</g>
</svg>
